<svg xmlns="http://www.w3.org/2000/svg" xmlns:xlink="http://www.w3.org/1999/xlink" width="2604" zoomAndPan="magnify" viewBox="0 0 1952.88 1952.999925" height="2604" preserveAspectRatio="xMidYMid meet" version="1.0"><defs><g/><clipPath id="55da2ea72a"><path d="M 195.289062 722.460938 L 716.507812 722.460938 L 716.507812 1243.679688 L 195.289062 1243.679688 Z M 195.289062 722.460938 " clip-rule="nonzero"/></clipPath><clipPath id="31f227a251"><path d="M 1064.726562 783.347656 L 1168.910156 783.347656 L 1168.910156 887.53125 L 1064.726562 887.53125 Z M 1064.726562 783.347656 " clip-rule="nonzero"/></clipPath><clipPath id="401cc56572"><path d="M 1116.816406 783.347656 C 1088.046875 783.347656 1064.726562 806.667969 1064.726562 835.4375 C 1064.726562 864.210938 1088.046875 887.53125 1116.816406 887.53125 C 1145.585938 887.53125 1168.910156 864.210938 1168.910156 835.4375 C 1168.910156 806.667969 1145.585938 783.347656 1116.816406 783.347656 Z M 1116.816406 783.347656 " clip-rule="nonzero"/></clipPath><clipPath id="6a05618abe"><path d="M 1083.578125 803.582031 L 1154.824219 803.582031 L 1154.824219 874.828125 L 1083.578125 874.828125 Z M 1083.578125 803.582031 " clip-rule="nonzero"/></clipPath><clipPath id="03805786d6"><path d="M 232.191406 783.347656 L 679.605469 783.347656 L 679.605469 1230.761719 L 232.191406 1230.761719 Z M 232.191406 783.347656 " clip-rule="nonzero"/></clipPath><clipPath id="b871e36fff"><path d="M 455.898438 783.347656 C 332.347656 783.347656 232.191406 883.503906 232.191406 1007.054688 C 232.191406 1130.601562 332.347656 1230.761719 455.898438 1230.761719 C 579.445312 1230.761719 679.605469 1130.601562 679.605469 1007.054688 C 679.605469 883.503906 579.445312 783.347656 455.898438 783.347656 Z M 455.898438 783.347656 " clip-rule="nonzero"/></clipPath><clipPath id="56ff4b5b8e"><path d="M 437 804.332031 L 478 804.332031 L 478 1192 L 437 1192 Z M 437 804.332031 " clip-rule="nonzero"/></clipPath><clipPath id="c07d5af266"><path d="M 243.671875 830 L 432 830 L 432 918 L 243.671875 918 Z M 243.671875 830 " clip-rule="nonzero"/></clipPath><clipPath id="300029b5a4"><path d="M 480 830 L 668.148438 830 L 668.148438 918 L 480 918 Z M 480 830 " clip-rule="nonzero"/></clipPath><clipPath id="d7b77de17c"><path d="M 1428.554688 870.261719 L 1579 870.261719 L 1579 936 L 1428.554688 936 Z M 1428.554688 870.261719 " clip-rule="nonzero"/></clipPath></defs><g clip-path="url(#55da2ea72a)"><path fill="#ff3131" d="M 716.507812 983.070312 C 716.507812 987.335938 716.402344 991.597656 716.191406 995.859375 C 715.984375 1000.117188 715.667969 1004.371094 715.25 1008.617188 C 714.832031 1012.859375 714.3125 1017.09375 713.683594 1021.3125 C 713.058594 1025.53125 712.332031 1029.730469 711.5 1033.914062 C 710.667969 1038.097656 709.730469 1042.257812 708.695312 1046.394531 C 707.660156 1050.53125 706.523438 1054.640625 705.285156 1058.722656 C 704.046875 1062.804688 702.707031 1066.851562 701.273438 1070.867188 C 699.835938 1074.882812 698.300781 1078.863281 696.667969 1082.800781 C 695.035156 1086.742188 693.308594 1090.640625 691.484375 1094.496094 C 689.660156 1098.351562 687.742188 1102.160156 685.734375 1105.921875 C 683.722656 1109.683594 681.621094 1113.394531 679.429688 1117.050781 C 677.234375 1120.710938 674.953125 1124.3125 672.585938 1127.859375 C 670.214844 1131.40625 667.761719 1134.890625 665.21875 1138.316406 C 662.679688 1141.742188 660.054688 1145.101562 657.351562 1148.398438 C 654.644531 1151.695312 651.859375 1154.925781 648.996094 1158.085938 C 646.132812 1161.246094 643.191406 1164.335938 640.175781 1167.351562 C 637.160156 1170.367188 634.070312 1173.304688 630.910156 1176.171875 C 627.75 1179.035156 624.523438 1181.820312 621.226562 1184.523438 C 617.929688 1187.230469 614.566406 1189.855469 611.140625 1192.394531 C 607.714844 1194.933594 604.230469 1197.390625 600.683594 1199.761719 C 597.136719 1202.128906 593.535156 1204.410156 589.875 1206.601562 C 586.21875 1208.796875 582.507812 1210.898438 578.746094 1212.910156 C 574.984375 1214.917969 571.175781 1216.835938 567.320312 1218.660156 C 563.464844 1220.484375 559.566406 1222.210938 555.628906 1223.84375 C 551.6875 1225.476562 547.710938 1227.007812 543.695312 1228.445312 C 539.675781 1229.882812 535.628906 1231.222656 531.546875 1232.457031 C 527.464844 1233.695312 523.355469 1234.835938 519.21875 1235.871094 C 515.082031 1236.90625 510.921875 1237.839844 506.738281 1238.671875 C 502.554688 1239.503906 498.355469 1240.234375 494.136719 1240.859375 C 489.917969 1241.484375 485.6875 1242.007812 481.441406 1242.425781 C 477.195312 1242.84375 472.945312 1243.15625 468.683594 1243.367188 C 464.425781 1243.574219 460.160156 1243.679688 455.898438 1243.679688 C 451.632812 1243.679688 447.371094 1243.574219 443.109375 1243.367188 C 438.847656 1243.15625 434.597656 1242.84375 430.351562 1242.425781 C 426.109375 1242.007812 421.875 1241.484375 417.65625 1240.859375 C 413.4375 1240.234375 409.238281 1239.503906 405.054688 1238.671875 C 400.871094 1237.839844 396.710938 1236.90625 392.574219 1235.871094 C 388.4375 1234.835938 384.328125 1233.695312 380.246094 1232.457031 C 376.164062 1231.222656 372.117188 1229.882812 368.101562 1228.445312 C 364.085938 1227.007812 360.105469 1225.476562 356.167969 1223.84375 C 352.226562 1222.210938 348.328125 1220.484375 344.472656 1218.660156 C 340.617188 1216.835938 336.808594 1214.917969 333.046875 1212.910156 C 329.285156 1210.898438 325.574219 1208.796875 321.917969 1206.601562 C 318.257812 1204.410156 314.65625 1202.128906 311.109375 1199.761719 C 307.5625 1197.390625 304.078125 1194.933594 300.652344 1192.394531 C 297.226562 1189.855469 293.867188 1187.230469 290.570312 1184.523438 C 287.269531 1181.820312 284.042969 1179.035156 280.882812 1176.171875 C 277.722656 1173.304688 274.632812 1170.367188 271.617188 1167.351562 C 268.601562 1164.335938 265.664062 1161.246094 262.796875 1158.085938 C 259.933594 1154.925781 257.148438 1151.695312 254.445312 1148.398438 C 251.738281 1145.101562 249.113281 1141.742188 246.574219 1138.316406 C 244.03125 1134.890625 241.578125 1131.40625 239.207031 1127.859375 C 236.839844 1124.3125 234.558594 1120.710938 232.363281 1117.050781 C 230.171875 1113.394531 228.070312 1109.683594 226.058594 1105.921875 C 224.050781 1102.160156 222.132812 1098.351562 220.308594 1094.496094 C 218.484375 1090.640625 216.757812 1086.742188 215.125 1082.800781 C 213.492188 1078.863281 211.960938 1074.882812 210.523438 1070.867188 C 209.085938 1066.851562 207.746094 1062.804688 206.507812 1058.722656 C 205.273438 1054.640625 204.132812 1050.53125 203.097656 1046.394531 C 202.0625 1042.257812 201.128906 1038.097656 200.296875 1033.914062 C 199.464844 1029.730469 198.734375 1025.53125 198.109375 1021.3125 C 197.484375 1017.09375 196.960938 1012.859375 196.542969 1008.617188 C 196.125 1004.371094 195.8125 1000.117188 195.601562 995.859375 C 195.394531 991.597656 195.289062 987.335938 195.289062 983.070312 C 195.289062 978.804688 195.394531 974.542969 195.601562 970.285156 C 195.8125 966.023438 196.125 961.773438 196.542969 957.527344 C 196.960938 953.28125 197.484375 949.050781 198.109375 944.832031 C 198.734375 940.613281 199.464844 936.414062 200.296875 932.230469 C 201.128906 928.046875 202.0625 923.886719 203.097656 919.75 C 204.132812 915.613281 205.273438 911.503906 206.507812 907.421875 C 207.746094 903.339844 209.085938 899.289062 210.523438 895.273438 C 211.960938 891.257812 213.492188 887.28125 215.125 883.339844 C 216.757812 879.402344 218.484375 875.503906 220.308594 871.648438 C 222.132812 867.792969 224.050781 863.984375 226.058594 860.222656 C 228.070312 856.460938 230.171875 852.75 232.363281 849.09375 C 234.558594 845.433594 236.839844 841.832031 239.207031 838.285156 C 241.578125 834.738281 244.03125 831.253906 246.574219 827.828125 C 249.113281 824.402344 251.738281 821.039062 254.445312 817.742188 C 257.148438 814.445312 259.933594 811.21875 262.796875 808.058594 C 265.664062 804.898438 268.601562 801.808594 271.617188 798.792969 C 274.632812 795.777344 277.722656 792.835938 280.882812 789.972656 C 284.042969 787.109375 287.269531 784.324219 290.570312 781.617188 C 293.867188 778.914062 297.226562 776.289062 300.652344 773.75 C 304.078125 771.207031 307.5625 768.753906 311.109375 766.382812 C 314.65625 764.011719 318.257812 761.734375 321.917969 759.539062 C 325.574219 757.347656 329.285156 755.246094 333.046875 753.234375 C 336.808594 751.222656 340.617188 749.308594 344.472656 747.484375 C 348.328125 745.660156 352.226562 743.933594 356.167969 742.300781 C 360.105469 740.667969 364.085938 739.132812 368.101562 737.695312 C 372.117188 736.261719 376.164062 734.921875 380.246094 733.683594 C 384.328125 732.445312 388.4375 731.308594 392.574219 730.273438 C 396.710938 729.238281 400.871094 728.300781 405.054688 727.46875 C 409.238281 726.636719 413.4375 725.910156 417.65625 725.285156 C 421.875 724.65625 426.109375 724.136719 430.351562 723.71875 C 434.597656 723.300781 438.847656 722.984375 443.109375 722.777344 C 447.371094 722.566406 451.632812 722.460938 455.898438 722.460938 C 460.160156 722.460938 464.425781 722.566406 468.683594 722.777344 C 472.945312 722.984375 477.195312 723.300781 481.441406 723.71875 C 485.6875 724.136719 489.917969 724.65625 494.136719 725.285156 C 498.355469 725.910156 502.554688 726.636719 506.738281 727.46875 C 510.921875 728.300781 515.082031 729.238281 519.21875 730.273438 C 523.355469 731.308594 527.464844 732.445312 531.546875 733.683594 C 535.628906 734.921875 539.675781 736.261719 543.695312 737.695312 C 547.710938 739.132812 551.6875 740.667969 555.628906 742.300781 C 559.566406 743.933594 563.464844 745.660156 567.320312 747.484375 C 571.175781 749.308594 574.984375 751.222656 578.746094 753.234375 C 582.507812 755.246094 586.21875 757.347656 589.875 759.539062 C 593.535156 761.734375 597.136719 764.011719 600.683594 766.382812 C 604.230469 768.753906 607.714844 771.207031 611.140625 773.75 C 614.566406 776.289062 617.929688 778.914062 621.226562 781.617188 C 624.523438 784.324219 627.75 787.109375 630.910156 789.972656 C 634.070312 792.835938 637.160156 795.777344 640.175781 798.792969 C 643.191406 801.808594 646.132812 804.898438 648.996094 808.058594 C 651.859375 811.21875 654.644531 814.445312 657.351562 817.742188 C 660.054688 821.039062 662.679688 824.402344 665.21875 827.828125 C 667.761719 831.253906 670.214844 834.738281 672.585938 838.285156 C 674.953125 841.832031 677.234375 845.433594 679.429688 849.09375 C 681.621094 852.75 683.722656 856.460938 685.734375 860.222656 C 687.742188 863.984375 689.660156 867.792969 691.484375 871.648438 C 693.308594 875.503906 695.035156 879.402344 696.667969 883.339844 C 698.300781 887.28125 699.835938 891.257812 701.273438 895.273438 C 702.707031 899.289062 704.046875 903.339844 705.285156 907.421875 C 706.523438 911.503906 707.660156 915.613281 708.695312 919.75 C 709.730469 923.886719 710.667969 928.046875 711.5 932.230469 C 712.332031 936.414062 713.058594 940.613281 713.683594 944.832031 C 714.3125 949.050781 714.832031 953.28125 715.25 957.527344 C 715.667969 961.773438 715.984375 966.023438 716.191406 970.285156 C 716.402344 974.542969 716.507812 978.804688 716.507812 983.070312 Z M 716.507812 983.070312 " fill-opacity="1" fill-rule="nonzero"/></g><path fill="#ffffff" d="M 622.949219 1029.605469 C 622.949219 1006.71875 604.328125 988.097656 581.441406 988.097656 C 558.554688 988.097656 539.933594 1006.71875 539.933594 1029.605469 C 539.933594 1048.238281 552.277344 1064.042969 569.210938 1069.277344 C 568.636719 1078.734375 565.917969 1093.820312 555.292969 1105.882812 C 543.355469 1119.449219 523.910156 1126.496094 497.507812 1126.84375 C 473.132812 1127.164062 454.363281 1120.574219 441.757812 1107.28125 C 429.226562 1094.0625 424.742188 1076.441406 423.1875 1064.023438 C 428.953125 1059.800781 432.761719 1052.59375 432.761719 1044.410156 C 432.761719 1042.867188 432.625 1041.367188 432.363281 1039.90625 C 453.15625 1030.898438 464.875 1009.910156 466.855469 1006.113281 C 468.554688 1003.164062 482.109375 979.371094 493.433594 951.613281 C 510.800781 909.023438 513.660156 880.132812 502.167969 863.273438 C 495.632812 853.679688 485.925781 849.820312 476.226562 848.800781 C 472.789062 842.398438 466.042969 838.050781 458.265625 838.050781 C 447.003906 838.050781 437.878906 847.171875 437.878906 858.433594 C 437.878906 869.683594 447.003906 878.816406 458.265625 878.816406 C 463.664062 878.816406 468.574219 876.710938 472.226562 873.28125 C 476.25 873.5 479.886719 874.542969 481.722656 877.234375 C 483.964844 880.527344 489.804688 894.925781 470.617188 942.054688 C 459.429688 969.527344 445.449219 993.726562 445.304688 993.96875 L 445 994.53125 C 442.21875 999.898438 432.207031 1014.632812 419.445312 1018.34375 C 412.898438 1020.242188 406.152344 1019.105469 398.832031 1014.851562 C 366.300781 995.9375 354.511719 951.824219 343.113281 909.160156 C 342.46875 906.71875 341.8125 904.289062 341.164062 901.871094 C 338.296875 891.214844 338.828125 883.019531 342.726562 877.515625 C 344.25 875.375 346.199219 873.6875 348.296875 872.363281 C 352.019531 876.335938 357.304688 878.828125 363.175781 878.828125 C 374.425781 878.828125 383.546875 869.703125 383.546875 858.445312 C 383.546875 847.195312 374.425781 838.0625 363.175781 838.0625 C 356.71875 838.0625 350.976562 841.0625 347.242188 845.746094 C 339.296875 848.363281 329.613281 853.378906 322.710938 862.960938 C 314.179688 874.804688 312.34375 890.066406 317.257812 908.304688 C 317.902344 910.710938 318.550781 913.132812 319.195312 915.550781 C 325.296875 938.382812 331.601562 961.988281 341.289062 982.945312 C 352.8125 1007.867188 367.5625 1025.296875 386.382812 1036.246094 C 387.78125 1037.058594 389.179688 1037.800781 390.585938 1038.476562 C 390.136719 1040.375 389.898438 1042.378906 389.898438 1044.429688 C 389.898438 1051.992188 393.140625 1058.703125 398.175781 1063.011719 C 399.675781 1079.160156 405.140625 1104.507812 423.648438 1124.152344 C 440.832031 1142.386719 465.113281 1151.613281 495.839844 1151.613281 C 496.507812 1151.613281 497.175781 1151.613281 497.84375 1151.605469 C 531.6875 1151.167969 557.347656 1141.210938 574.113281 1121.992188 C 589.835938 1103.964844 593.453125 1082.332031 594.027344 1069.171875 C 610.769531 1063.824219 622.949219 1048.113281 622.949219 1029.605469 Z M 581.429688 1046.359375 C 572.195312 1046.359375 564.675781 1038.84375 564.675781 1029.605469 C 564.675781 1020.367188 572.195312 1012.847656 581.429688 1012.847656 C 590.667969 1012.847656 598.1875 1020.367188 598.1875 1029.605469 C 598.195312 1038.84375 590.679688 1046.359375 581.429688 1046.359375 Z M 581.429688 1046.359375 " fill-opacity="1" fill-rule="nonzero"/><g fill="#ff3131" fill-opacity="1"><g transform="translate(764.997553, 909.117972)"><g><path d="M 97.75 0 L 77.09375 -39.140625 L 49.28125 -39.140625 L 49.28125 0 L 13.90625 0 L 13.90625 -139.078125 L 76.09375 -139.078125 C 94.507812 -139.078125 108.75 -134.867188 118.8125 -126.453125 C 128.882812 -118.046875 133.921875 -106.09375 133.921875 -90.59375 C 133.921875 -69.144531 125.507812 -54.242188 108.6875 -45.890625 L 137.890625 0 Z M 49.28125 -66.953125 L 76.09375 -66.953125 C 83.78125 -66.953125 89.742188 -68.875 93.984375 -72.71875 C 98.222656 -76.5625 100.34375 -82.125 100.34375 -89.40625 C 100.34375 -96.5625 98.222656 -101.992188 93.984375 -105.703125 C 89.742188 -109.410156 83.78125 -111.265625 76.09375 -111.265625 L 49.28125 -111.265625 Z M 49.28125 -66.953125 "/></g></g></g><g fill="#ff3131" fill-opacity="1"><g transform="translate(908.851116, 909.117972)"><g><path d="M 122.78125 -111.265625 L 49.28125 -111.265625 L 49.28125 -83.640625 L 115.640625 -83.640625 L 115.640625 -55.828125 L 49.28125 -55.828125 L 49.28125 -27.8125 L 124.96875 -27.8125 L 124.96875 0 L 13.90625 0 L 13.90625 -139.078125 L 122.78125 -139.078125 Z M 122.78125 -111.265625 "/></g></g></g><g fill="#ff3131" fill-opacity="1"><g transform="translate(1042.770043, 909.117972)"><g><path d="M 13.90625 -139.078125 L 73.71875 -139.078125 C 95.570312 -139.078125 113.351562 -132.648438 127.0625 -119.796875 C 140.769531 -106.953125 147.625 -90.203125 147.625 -69.546875 C 147.625 -49.015625 140.671875 -32.289062 126.765625 -19.375 C 112.859375 -6.457031 94.710938 0 72.328125 0 L 13.90625 0 Z M 49.28125 -110.875 L 49.28125 -28.21875 L 74.515625 -28.21875 C 85.367188 -28.21875 94.269531 -32.023438 101.21875 -39.640625 C 108.175781 -47.253906 111.65625 -57.15625 111.65625 -69.34375 C 111.65625 -81.53125 108.015625 -91.5 100.734375 -99.25 C 93.453125 -107 84.179688 -110.875 72.921875 -110.875 Z M 49.28125 -110.875 "/></g></g></g><g fill="#ff3131" fill-opacity="1"><g transform="translate(764.997553, 1087.875819)"><g><path d="M 166.703125 0 L 135.5 0 L 135.3125 -90.40625 L 101.921875 -13.90625 L 78.875 -13.90625 L 45.5 -90.40625 L 45.5 0 L 13.90625 0 L 13.90625 -139.28125 L 52.65625 -139.28125 L 90.40625 -56.421875 L 128.15625 -139.28125 L 166.703125 -139.28125 Z M 166.703125 0 "/></g></g></g><g fill="#ff3131" fill-opacity="1"><g transform="translate(945.807968, 1087.875819)"><g><path d="M 122.78125 -111.265625 L 49.28125 -111.265625 L 49.28125 -83.640625 L 115.640625 -83.640625 L 115.640625 -55.828125 L 49.28125 -55.828125 L 49.28125 -27.8125 L 124.96875 -27.8125 L 124.96875 0 L 13.90625 0 L 13.90625 -139.078125 L 122.78125 -139.078125 Z M 122.78125 -111.265625 "/></g></g></g><g fill="#ff3131" fill-opacity="1"><g transform="translate(1079.726895, 1087.875819)"><g><path d="M 13.90625 -139.078125 L 73.71875 -139.078125 C 95.570312 -139.078125 113.351562 -132.648438 127.0625 -119.796875 C 140.769531 -106.953125 147.625 -90.203125 147.625 -69.546875 C 147.625 -49.015625 140.671875 -32.289062 126.765625 -19.375 C 112.859375 -6.457031 94.710938 0 72.328125 0 L 13.90625 0 Z M 49.28125 -110.875 L 49.28125 -28.21875 L 74.515625 -28.21875 C 85.367188 -28.21875 94.269531 -32.023438 101.21875 -39.640625 C 108.175781 -47.253906 111.65625 -57.15625 111.65625 -69.34375 C 111.65625 -81.53125 108.015625 -91.5 100.734375 -99.25 C 93.453125 -107 84.179688 -110.875 72.921875 -110.875 Z M 49.28125 -110.875 "/></g></g></g><g fill="#ff3131" fill-opacity="1"><g transform="translate(1232.124215, 1087.875819)"><g><path d="M 49.28125 0 L 13.90625 0 L 13.90625 -139.078125 L 49.28125 -139.078125 Z M 49.28125 0 "/></g></g></g><g fill="#ff3131" fill-opacity="1"><g transform="translate(1295.308493, 1087.875819)"><g><path d="M 79.078125 -140.265625 C 89.410156 -140.265625 99.578125 -138.144531 109.578125 -133.90625 C 119.578125 -129.675781 128.085938 -123.984375 135.109375 -116.828125 L 114.640625 -92.59375 C 110.140625 -98.15625 104.742188 -102.554688 98.453125 -105.796875 C 92.160156 -109.046875 85.898438 -110.671875 79.671875 -110.671875 C 68.679688 -110.671875 59.472656 -106.796875 52.046875 -99.046875 C 44.628906 -91.296875 40.921875 -81.722656 40.921875 -70.328125 C 40.921875 -58.671875 44.628906 -48.9375 52.046875 -41.125 C 59.472656 -33.3125 68.679688 -29.40625 79.671875 -29.40625 C 85.503906 -29.40625 91.566406 -30.859375 97.859375 -33.765625 C 104.148438 -36.679688 109.742188 -40.660156 114.640625 -45.703125 L 135.3125 -23.84375 C 127.757812 -16.15625 118.847656 -9.992188 108.578125 -5.359375 C 98.316406 -0.722656 88.085938 1.59375 77.890625 1.59375 C 56.960938 1.59375 39.539062 -5.226562 25.625 -18.875 C 11.71875 -32.519531 4.765625 -49.539062 4.765625 -69.9375 C 4.765625 -89.9375 11.847656 -106.65625 26.015625 -120.09375 C 40.191406 -133.539062 57.878906 -140.265625 79.078125 -140.265625 Z M 79.078125 -140.265625 "/></g></g></g><g fill="#ff3131" fill-opacity="1"><g transform="translate(1432.806529, 1087.875819)"><g/></g></g><g fill="#ff3131" fill-opacity="1"><g transform="translate(1478.903246, 1087.875819)"><g/></g></g><g fill="#ff3131" fill-opacity="1"><g transform="translate(1571.105621, 1087.875819)"><g><path d="M 49.28125 -29.609375 L 108.28125 -29.609375 L 108.28125 0 L 13.90625 0 L 13.90625 -139.078125 L 49.28125 -139.078125 Z M 49.28125 -29.609375 "/></g></g></g><g clip-path="url(#31f227a251)"><g clip-path="url(#401cc56572)"><path fill="#ff3131" d="M 1064.726562 783.347656 L 1168.910156 783.347656 L 1168.910156 887.53125 L 1064.726562 887.53125 Z M 1064.726562 783.347656 " fill-opacity="1" fill-rule="nonzero"/></g></g><g clip-path="url(#6a05618abe)"><path fill="#ffffff" d="M 1107.335938 803.582031 C 1103.855469 803.582031 1101.019531 806.453125 1101.019531 809.902344 L 1101.019531 821.019531 L 1089.898438 821.019531 C 1086.414062 821.019531 1083.578125 823.910156 1083.578125 827.371094 L 1083.578125 850.800781 C 1083.578125 854.261719 1086.433594 857.121094 1089.898438 857.121094 L 1101.019531 857.121094 L 1101.019531 868.238281 C 1101.019531 871.703125 1103.875 874.558594 1107.335938 874.558594 L 1130.796875 874.558594 C 1134.246094 874.558594 1137.117188 871.722656 1137.117188 868.238281 L 1137.117188 857.121094 L 1148.234375 857.121094 C 1151.699219 857.121094 1154.554688 854.261719 1154.554688 850.800781 L 1154.554688 827.371094 C 1154.554688 823.90625 1151.71875 821.019531 1148.234375 821.019531 L 1137.117188 821.019531 L 1137.117188 809.902344 C 1137.117188 806.433594 1134.265625 803.582031 1130.796875 803.582031 Z M 1107.335938 807.984375 L 1130.796875 807.984375 C 1131.820312 807.984375 1132.714844 808.878906 1132.714844 809.902344 L 1132.714844 823.222656 C 1132.714844 823.515625 1132.769531 823.796875 1132.882812 824.066406 C 1132.992188 824.335938 1133.152344 824.574219 1133.359375 824.777344 C 1133.566406 824.984375 1133.804688 825.144531 1134.074219 825.257812 C 1134.34375 825.367188 1134.621094 825.421875 1134.914062 825.421875 L 1148.234375 825.421875 C 1149.308594 825.421875 1150.152344 826.28125 1150.152344 827.371094 L 1150.152344 850.800781 C 1150.152344 851.890625 1149.328125 852.714844 1148.234375 852.714844 L 1134.914062 852.714844 C 1134.621094 852.714844 1134.34375 852.773438 1134.074219 852.882812 C 1133.804688 852.996094 1133.566406 853.15625 1133.359375 853.363281 C 1133.152344 853.566406 1132.992188 853.804688 1132.882812 854.074219 C 1132.769531 854.34375 1132.714844 854.625 1132.714844 854.917969 L 1132.714844 868.238281 C 1132.714844 869.308594 1131.839844 870.15625 1130.796875 870.15625 L 1107.335938 870.15625 C 1106.246094 870.15625 1105.421875 869.332031 1105.421875 868.238281 L 1105.421875 854.917969 C 1105.421875 854.625 1105.363281 854.34375 1105.253906 854.074219 C 1105.140625 853.804688 1104.980469 853.566406 1104.777344 853.363281 C 1104.570312 853.15625 1104.332031 852.996094 1104.0625 852.882812 C 1103.792969 852.773438 1103.511719 852.714844 1103.21875 852.714844 L 1089.898438 852.714844 C 1088.808594 852.714844 1087.980469 851.890625 1087.980469 850.800781 L 1087.980469 827.371094 C 1087.980469 826.28125 1088.828125 825.421875 1089.898438 825.421875 L 1103.21875 825.421875 C 1103.511719 825.421875 1103.792969 825.367188 1104.0625 825.257812 C 1104.332031 825.144531 1104.570312 824.984375 1104.777344 824.777344 C 1104.980469 824.574219 1105.140625 824.335938 1105.253906 824.066406 C 1105.363281 823.796875 1105.421875 823.515625 1105.421875 823.222656 L 1105.421875 809.902344 C 1105.421875 808.859375 1106.265625 807.984375 1107.335938 807.984375 Z M 1107.335938 807.984375 " fill-opacity="1" fill-rule="evenodd"/></g><path fill="#ffffff" d="M 1111.308594 827.292969 C 1108.546875 827.359375 1106.160156 828.660156 1104.570312 830.511719 C 1101.445312 834.144531 1100.847656 839.648438 1102.753906 844.296875 C 1102.859375 844.542969 1102.957031 844.75 1103.054688 844.957031 C 1105.21875 849.625 1110.777344 854.8125 1117.527344 861.105469 C 1118.507812 861.945312 1119.71875 861.914062 1120.609375 861.105469 C 1127.386719 854.789062 1132.964844 849.585938 1135.109375 844.902344 C 1135.246094 844.601562 1135.339844 844.386719 1135.4375 844.132812 C 1137.265625 839.515625 1136.628906 834.105469 1133.539062 830.511719 C 1131.949219 828.660156 1129.59375 827.359375 1126.828125 827.292969 C 1124.433594 827.234375 1121.820312 828.039062 1119.070312 829.742188 C 1116.316406 828.039062 1113.703125 827.234375 1111.308594 827.292969 Z M 1111.417969 831.695312 C 1112.894531 831.660156 1114.933594 832.246094 1117.472656 833.980469 C 1118.648438 834.828125 1119.472656 834.746094 1120.609375 834.007812 C 1123.171875 832.246094 1125.230469 831.660156 1126.71875 831.695312 C 1128.257812 831.734375 1129.3125 832.328125 1130.210938 833.375 C 1131.988281 835.441406 1132.582031 839.585938 1131.285156 842.699219 C 1131.269531 842.738281 1131.246094 842.773438 1131.230469 842.8125 C 1131.21875 842.828125 1131.210938 842.847656 1131.203125 842.867188 C 1130.09375 845.449219 1125.246094 850.660156 1119.070312 856.511719 C 1112.949219 850.714844 1108.117188 845.574219 1106.949219 842.96875 C 1106.917969 842.894531 1106.90625 842.855469 1106.878906 842.8125 C 1105.523438 839.683594 1106.128906 835.464844 1107.925781 833.375 C 1108.824219 832.328125 1109.878906 831.730469 1111.417969 831.695312 Z M 1111.417969 831.695312 " fill-opacity="1" fill-rule="evenodd"/><g clip-path="url(#03805786d6)"><g clip-path="url(#b871e36fff)"><path fill="#ff3131" d="M 232.191406 783.347656 L 679.605469 783.347656 L 679.605469 1230.761719 L 232.191406 1230.761719 Z M 232.191406 783.347656 " fill-opacity="1" fill-rule="nonzero"/></g></g><g clip-path="url(#56ff4b5b8e)"><path fill="#ffffff" d="M 477.359375 825.167969 C 477.359375 813.75 468.332031 804.503906 457.191406 804.503906 C 446.058594 804.503906 437.03125 813.75 437.03125 825.167969 C 437.03125 833.980469 442.449219 841.453125 450.039062 844.417969 L 457 1191.75 L 464.34375 844.417969 C 471.933594 841.453125 477.359375 833.980469 477.359375 825.167969 " fill-opacity="1" fill-rule="nonzero"/></g><path fill="#ffffff" d="M 377.410156 873.363281 C 377.410156 873.363281 376.9375 873.457031 376.160156 873.816406 C 375.363281 874.082031 374.292969 874.832031 372.898438 875.550781 C 372.246094 876.003906 371.515625 876.507812 370.722656 877.058594 C 369.933594 877.605469 369.0625 878.128906 368.199219 878.867188 C 367.339844 879.566406 366.417969 880.324219 365.433594 881.066406 C 364.941406 881.453125 364.429688 881.832031 363.917969 882.238281 C 363.433594 882.683594 362.933594 883.128906 362.421875 883.585938 C 361.398438 884.511719 360.328125 885.441406 359.210938 886.40625 C 358.652344 886.902344 358.09375 887.375 357.515625 887.875 C 356.957031 888.40625 356.394531 888.957031 355.828125 889.496094 C 353.5625 891.695312 351.101562 893.882812 348.628906 896.300781 C 346.210938 898.734375 343.691406 901.246094 341.105469 903.765625 C 340.433594 904.410156 339.75 905.054688 339.097656 905.714844 L 337.078125 907.601562 C 336.445312 908.238281 335.648438 908.878906 334.910156 909.523438 C 334.160156 910.160156 333.410156 910.832031 332.636719 911.402344 C 329.59375 913.796875 326.296875 915.882812 322.886719 917.585938 C 319.464844 919.292969 315.953125 920.675781 312.4375 921.605469 C 308.929688 922.515625 305.453125 923.027344 302.167969 923.222656 C 298.871094 923.375 295.761719 923.1875 292.917969 922.828125 C 287.253906 922.039062 282.761719 920.46875 279.730469 919.152344 C 278.226562 918.476562 277.078125 917.871094 276.3125 917.4375 C 275.535156 917 275.128906 916.726562 275.128906 916.726562 C 274.84375 916.527344 274.777344 916.148438 274.957031 915.871094 C 275.117188 915.617188 275.421875 915.523438 275.675781 915.625 L 275.6875 915.625 C 275.6875 915.625 276.09375 915.777344 276.898438 916.035156 C 277.695312 916.308594 278.898438 916.640625 280.433594 917.019531 C 283.484375 917.757812 287.925781 918.582031 293.234375 918.667969 C 295.886719 918.722656 298.738281 918.574219 301.710938 918.144531 C 304.695312 917.757812 307.785156 917.058594 310.882812 916.023438 C 313.972656 914.992188 317.089844 913.683594 320.089844 912.015625 C 323.074219 910.332031 326.03125 908.433594 328.769531 906.207031 C 329.488281 905.679688 330.113281 905.109375 330.777344 904.558594 C 331.433594 903.992188 332.085938 903.488281 332.769531 902.796875 C 334.09375 901.566406 335.421875 900.316406 336.738281 899.085938 C 339.429688 896.5625 342.117188 894.121094 344.714844 891.78125 C 347.386719 889.488281 350.105469 887.429688 352.636719 885.441406 C 353.277344 884.957031 353.914062 884.476562 354.519531 884 C 355.175781 883.566406 355.816406 883.128906 356.453125 882.703125 C 357.722656 881.871094 358.953125 881.054688 360.148438 880.308594 C 360.734375 879.929688 361.3125 879.558594 361.882812 879.199219 C 362.460938 878.855469 363.054688 878.542969 363.625 878.242188 C 364.753906 877.617188 365.84375 877.058594 366.855469 876.535156 C 367.851562 875.976562 368.882812 875.617188 369.800781 875.230469 C 370.722656 874.859375 371.574219 874.539062 372.339844 874.261719 C 373.960938 873.84375 375.164062 873.449219 376.082031 873.417969 C 376.953125 873.285156 377.410156 873.363281 377.410156 873.363281 " fill-opacity="1" fill-rule="nonzero"/><path fill="#ffffff" d="M 398.679688 882.203125 C 398.679688 882.203125 398.214844 882.296875 397.464844 882.648438 C 396.707031 882.902344 395.65625 883.640625 394.320312 884.34375 C 393.6875 884.777344 392.976562 885.269531 392.21875 885.800781 C 391.449219 886.34375 390.605469 886.84375 389.78125 887.5625 C 388.949219 888.253906 388.066406 888.976562 387.109375 889.707031 C 386.636719 890.074219 386.144531 890.453125 385.652344 890.84375 C 385.179688 891.277344 384.703125 891.703125 384.203125 892.148438 C 383.21875 893.050781 382.183594 893.957031 381.105469 894.886719 C 380.574219 895.359375 380.023438 895.84375 379.464844 896.308594 C 378.933594 896.820312 378.394531 897.339844 377.84375 897.871094 C 375.628906 899.964844 373.308594 902.171875 370.890625 904.457031 C 368.550781 906.824219 366.117188 909.257812 363.617188 911.683594 C 362.960938 912.320312 362.308594 912.953125 361.664062 913.570312 L 359.722656 915.417969 C 359.097656 916.035156 358.339844 916.660156 357.617188 917.265625 C 356.890625 917.882812 356.167969 918.542969 355.410156 919.085938 C 352.464844 921.414062 349.273438 923.433594 345.964844 925.101562 C 342.660156 926.777344 339.238281 928.066406 335.835938 928.964844 C 332.4375 929.835938 329.0625 930.339844 325.878906 930.519531 C 322.679688 930.671875 319.65625 930.480469 316.917969 930.121094 C 311.433594 929.355469 307.074219 927.828125 304.15625 926.53125 C 302.695312 925.894531 301.589844 925.28125 300.839844 924.871094 C 300.089844 924.445312 299.703125 924.171875 299.703125 924.171875 L 300.253906 923.089844 C 300.253906 923.089844 300.652344 923.222656 301.4375 923.472656 C 302.203125 923.726562 303.359375 924.058594 304.847656 924.410156 C 307.804688 925.121094 312.105469 925.894531 317.230469 925.953125 C 319.789062 926.019531 322.554688 925.859375 325.433594 925.460938 C 328.304688 925.070312 331.300781 924.398438 334.265625 923.386719 C 337.257812 922.390625 340.253906 921.082031 343.160156 919.480469 C 346.058594 917.882812 348.902344 916.050781 351.546875 913.902344 C 352.238281 913.390625 352.851562 912.839844 353.488281 912.300781 C 354.121094 911.75 354.746094 911.269531 355.402344 910.625 C 356.691406 909.410156 357.976562 908.199219 359.257812 907.015625 C 361.863281 904.558594 364.441406 902.210938 366.988281 899.945312 C 369.566406 897.730469 372.199219 895.738281 374.664062 893.828125 C 375.269531 893.363281 375.882812 892.886719 376.480469 892.425781 C 377.117188 892.015625 377.742188 891.589844 378.355469 891.183594 C 379.578125 890.378906 380.773438 889.582031 381.929688 888.863281 C 382.507812 888.5 383.066406 888.140625 383.625 887.792969 C 384.191406 887.488281 384.753906 887.175781 385.300781 886.871094 C 386.390625 886.285156 387.453125 885.734375 388.4375 885.234375 C 390.417969 884.230469 392.292969 883.613281 393.761719 883.042969 C 395.335938 882.648438 396.5 882.277344 397.382812 882.257812 C 398.234375 882.136719 398.679688 882.203125 398.679688 882.203125 " fill-opacity="1" fill-rule="nonzero"/><path fill="#ffffff" d="M 411.707031 893.296875 C 411.707031 893.296875 411.308594 893.398438 410.664062 893.722656 C 410 893.957031 409.089844 894.613281 407.945312 895.246094 C 407.386719 895.644531 406.777344 896.089844 406.125 896.574219 C 405.453125 897.039062 404.734375 897.503906 404.023438 898.148438 C 402.601562 899.40625 400.886719 900.589844 399.199219 902.210938 C 398.335938 902.996094 397.4375 903.800781 396.519531 904.636719 C 396.054688 905.054688 395.570312 905.46875 395.097656 905.894531 C 394.632812 906.339844 394.160156 906.796875 393.6875 907.28125 C 391.773438 909.109375 389.753906 911.050781 387.660156 913.050781 C 385.613281 915.132812 383.5 917.265625 381.304688 919.386719 C 380.726562 919.964844 380.136719 920.523438 379.542969 921.101562 L 377.808594 922.675781 L 376.054688 924.238281 C 375.457031 924.757812 374.945312 925.308594 374.207031 925.792969 C 372.816406 926.777344 371.441406 927.761719 370.058594 928.738281 C 368.644531 929.636719 367.175781 930.359375 365.746094 931.164062 L 364.675781 931.742188 L 363.550781 932.207031 C 362.808594 932.5 362.050781 932.800781 361.3125 933.097656 C 359.855469 933.742188 358.320312 934.136719 356.8125 934.527344 C 356.066406 934.707031 355.324219 934.933594 354.578125 935.066406 C 353.828125 935.179688 353.082031 935.304688 352.351562 935.417969 C 351.613281 935.523438 350.882812 935.636719 350.171875 935.730469 C 349.441406 935.769531 348.742188 935.816406 348.039062 935.851562 C 347.328125 935.882812 346.636719 935.910156 345.957031 935.929688 C 345.273438 935.890625 344.601562 935.851562 343.945312 935.816406 C 343.285156 935.769531 342.640625 935.738281 342.003906 935.710938 C 341.371094 935.644531 340.765625 935.550781 340.15625 935.464844 C 338.945312 935.3125 337.808594 935.105469 336.738281 934.820312 C 335.648438 934.566406 334.632812 934.347656 333.707031 934.015625 C 331.820312 933.464844 330.238281 932.785156 328.960938 932.214844 C 327.679688 931.648438 326.722656 931.097656 326.058594 930.726562 C 325.414062 930.339844 325.074219 930.101562 325.074219 930.101562 L 325.625 928.992188 C 325.625 928.992188 325.976562 929.117188 326.65625 929.324219 C 327.339844 929.535156 328.351562 929.820312 329.652344 930.101562 C 330.949219 930.394531 332.539062 930.679688 334.367188 930.917969 C 335.257812 931.070312 336.234375 931.136719 337.257812 931.203125 C 337.769531 931.230469 338.292969 931.285156 338.820312 931.285156 C 339.363281 931.285156 339.902344 931.285156 340.46875 931.316406 C 341.011719 931.316406 341.589844 931.34375 342.167969 931.335938 C 342.734375 931.285156 343.332031 931.238281 343.929688 931.203125 C 344.523438 931.164062 345.121094 931.117188 345.738281 931.078125 C 346.34375 930.972656 346.949219 930.890625 347.585938 930.773438 C 348.210938 930.699219 348.835938 930.605469 349.480469 930.527344 C 350.105469 930.378906 350.738281 930.226562 351.382812 930.066406 C 352.027344 929.902344 352.671875 929.753906 353.328125 929.589844 C 353.972656 929.429688 354.605469 929.15625 355.242188 928.9375 C 356.539062 928.472656 357.875 928.105469 359.113281 927.429688 C 359.757812 927.148438 360.402344 926.84375 361.046875 926.558594 L 362.015625 926.113281 L 362.941406 925.554688 C 364.175781 924.804688 365.453125 924.105469 366.65625 923.308594 C 367.804688 922.476562 368.957031 921.632812 370.113281 920.789062 C 370.691406 920.429688 371.28125 919.84375 371.859375 919.332031 L 373.601562 917.757812 L 375.34375 916.203125 L 376.953125 914.714844 C 379.230469 912.585938 381.519531 910.511719 383.738281 908.539062 C 386.011719 906.617188 388.332031 904.890625 390.492188 903.226562 C 391.042969 902.796875 391.582031 902.410156 392.105469 902.011719 C 392.664062 901.640625 393.230469 901.292969 393.761719 900.921875 C 394.851562 900.242188 395.902344 899.558594 396.90625 898.921875 C 397.417969 898.609375 397.910156 898.289062 398.394531 897.996094 C 398.914062 897.71875 399.417969 897.464844 399.902344 897.207031 C 400.867188 896.695312 401.804688 896.234375 402.667969 895.816406 C 404.421875 894.945312 406.078125 894.421875 407.375 893.957031 C 408.769531 893.628906 409.792969 893.324219 410.578125 893.316406 C 411.328125 893.230469 411.707031 893.296875 411.707031 893.296875 " fill-opacity="1" fill-rule="nonzero"/><path fill="#ffffff" d="M 430.816406 903.992188 C 430.816406 903.992188 430.464844 904.097656 429.894531 904.378906 C 429.316406 904.617188 428.53125 905.203125 427.535156 905.792969 C 427.0625 906.132812 426.53125 906.53125 425.964844 906.957031 C 425.386719 907.402344 424.761719 907.808594 424.144531 908.378906 C 422.914062 909.515625 421.445312 910.566406 419.96875 912.027344 C 419.226562 912.699219 418.453125 913.417969 417.644531 914.15625 C 417.25 914.527344 416.839844 914.90625 416.414062 915.265625 C 416.015625 915.671875 415.601562 916.082031 415.191406 916.496094 C 413.535156 918.117188 411.753906 919.824219 409.945312 921.605469 C 408.171875 923.433594 406.316406 925.308594 404.390625 927.15625 L 402.839844 928.691406 L 399.789062 931.4375 C 399.257812 931.894531 398.8125 932.367188 398.15625 932.800781 C 396.925781 933.683594 395.695312 934.554688 394.472656 935.417969 C 393.230469 936.214844 391.914062 936.839844 390.65625 937.539062 L 389.714844 938.0625 L 388.710938 938.476562 C 388.050781 938.734375 387.375 938.988281 386.722656 939.265625 C 385.433594 939.832031 384.070312 940.171875 382.734375 940.484375 C 382.070312 940.667969 381.417969 940.863281 380.761719 940.988281 C 380.101562 941.09375 379.445312 941.195312 378.785156 941.292969 C 378.148438 941.386719 377.496094 941.472656 376.859375 941.558594 C 376.234375 941.59375 375.601562 941.613281 374.976562 941.640625 C 374.347656 941.652344 373.734375 941.679688 373.128906 941.6875 C 372.519531 941.652344 371.941406 941.625 371.347656 941.59375 C 370.777344 941.558594 370.199219 941.507812 369.640625 941.472656 C 369.089844 941.40625 368.542969 941.308594 368.019531 941.242188 C 366.949219 941.101562 365.9375 940.894531 364.988281 940.648438 C 364.050781 940.410156 363.140625 940.203125 362.328125 939.898438 C 360.667969 939.386719 359.285156 938.78125 358.167969 938.269531 C 357.039062 937.75 356.207031 937.238281 355.636719 936.90625 C 355.058594 936.5625 354.765625 936.335938 354.765625 936.335938 L 355.316406 935.246094 C 355.316406 935.246094 355.636719 935.332031 356.226562 935.511719 C 356.824219 935.683594 357.722656 935.917969 358.859375 936.136719 C 359.996094 936.402344 361.390625 936.628906 362.988281 936.800781 C 363.777344 936.925781 364.621094 936.960938 365.527344 937.019531 C 365.964844 937.046875 366.417969 937.085938 366.894531 937.085938 C 367.359375 937.074219 367.839844 937.074219 368.324219 937.085938 C 368.808594 937.085938 369.300781 937.113281 369.8125 937.085938 C 370.304688 937.046875 370.816406 937 371.335938 936.960938 C 371.859375 936.925781 372.378906 936.867188 372.910156 936.839844 C 373.441406 936.753906 373.980469 936.660156 374.519531 936.5625 C 375.050781 936.488281 375.609375 936.402344 376.160156 936.316406 C 376.707031 936.183594 377.257812 936.042969 377.816406 935.890625 C 378.367188 935.757812 378.933594 935.617188 379.503906 935.492188 C 380.0625 935.332031 380.613281 935.105469 381.171875 934.90625 C 382.296875 934.507812 383.445312 934.175781 384.535156 933.597656 C 385.082031 933.332031 385.644531 933.078125 386.203125 932.820312 L 387.054688 932.421875 L 387.859375 931.960938 C 388.921875 931.285156 390.027344 930.671875 391.082031 930 C 392.074219 929.269531 393.0625 928.53125 394.066406 927.800781 C 394.558594 927.488281 395.078125 926.964844 395.582031 926.53125 L 397.125 925.148438 L 398.640625 923.785156 L 400.050781 922.496094 C 402.050781 920.628906 404.058594 918.820312 406.03125 917.085938 C 408.03125 915.410156 410.085938 913.890625 412 912.453125 C 412.484375 912.082031 412.964844 911.742188 413.429688 911.390625 C 413.921875 911.078125 414.414062 910.765625 414.898438 910.453125 C 415.863281 909.855469 416.785156 909.277344 417.683594 908.71875 C 418.128906 908.445312 418.574219 908.179688 419.011719 907.914062 C 419.464844 907.6875 419.902344 907.460938 420.335938 907.25 C 421.199219 906.804688 422.023438 906.417969 422.800781 906.046875 C 424.34375 905.320312 425.8125 904.890625 426.976562 904.496094 C 428.210938 904.230469 429.121094 903.984375 429.8125 903.984375 C 430.472656 903.925781 430.816406 903.992188 430.816406 903.992188 " fill-opacity="1" fill-rule="nonzero"/><path fill="#ffffff" d="M 447.980469 910.660156 C 447.980469 910.660156 447.699219 910.765625 447.261719 911.050781 C 446.828125 911.269531 446.21875 911.796875 445.460938 912.328125 C 445.113281 912.652344 444.703125 913.011719 444.269531 913.390625 C 443.84375 913.75 443.359375 914.121094 442.894531 914.632812 C 441.976562 915.617188 440.859375 916.527344 439.75 917.765625 C 438.660156 919 437.371094 920.15625 436.140625 921.574219 C 434.898438 922.996094 433.535156 924.398438 432.152344 925.894531 C 430.804688 927.429688 429.394531 929.011719 427.914062 930.558594 L 426.695312 931.863281 L 425.507812 933.011719 L 424.324219 934.167969 C 423.917969 934.554688 423.578125 934.945312 423.054688 935.332031 C 422.0625 936.082031 421.074219 936.839844 420.101562 937.597656 C 419.113281 938.289062 418.0625 938.835938 417.050781 939.445312 C 416.0625 940.097656 414.925781 940.46875 413.875 940.941406 C 412.84375 941.441406 411.734375 941.765625 410.664062 942.078125 C 410.125 942.230469 409.59375 942.398438 409.0625 942.511719 C 408.511719 942.628906 407.972656 942.722656 407.453125 942.816406 C 406.929688 942.902344 406.410156 942.996094 405.890625 943.074219 C 405.359375 943.121094 404.855469 943.15625 404.335938 943.195312 C 403.824219 943.214844 403.339844 943.253906 402.847656 943.28125 C 402.355469 943.273438 401.863281 943.253906 401.386719 943.242188 C 400.441406 943.214844 399.53125 943.148438 398.660156 943.007812 C 397.796875 942.910156 396.972656 942.769531 396.195312 942.578125 C 395.417969 942.398438 394.691406 942.238281 394.019531 942.011719 C 392.664062 941.625 391.546875 941.140625 390.617188 940.742188 C 389.699219 940.335938 389.007812 939.9375 388.550781 939.660156 C 388.085938 939.378906 387.832031 939.199219 387.832031 939.199219 L 388.351562 938.089844 C 388.351562 938.089844 388.597656 938.136719 389.082031 938.242188 C 389.582031 938.34375 390.304688 938.46875 391.230469 938.582031 C 392.152344 938.722656 393.277344 938.835938 394.558594 938.886719 C 395.191406 938.953125 395.863281 938.933594 396.585938 938.933594 C 397.296875 938.960938 398.042969 938.875 398.8125 938.835938 C 399.199219 938.800781 399.578125 938.789062 399.988281 938.753906 C 400.382812 938.6875 400.792969 938.648438 401.191406 938.582031 C 401.605469 938.535156 402.015625 938.476562 402.441406 938.410156 C 402.847656 938.324219 403.265625 938.242188 403.699219 938.144531 C 404.117188 938.050781 404.554688 937.964844 404.988281 937.871094 C 405.414062 937.738281 405.839844 937.605469 406.277344 937.472656 C 406.714844 937.332031 407.148438 937.207031 407.59375 937.074219 C 408.019531 936.933594 408.445312 936.714844 408.882812 936.554688 C 409.746094 936.195312 410.644531 935.882812 411.476562 935.378906 C 411.90625 935.152344 412.332031 934.914062 412.765625 934.707031 L 413.421875 934.367188 L 414.027344 933.957031 C 414.851562 933.410156 415.714844 932.859375 416.507812 932.308594 L 418.765625 930.492188 C 419.144531 930.234375 419.550781 929.789062 419.949219 929.429688 L 421.132812 928.273438 C 421.882812 927.527344 422.640625 926.804688 423.386719 926.066406 C 424.949219 924.503906 426.53125 922.996094 428.078125 921.546875 C 429.648438 920.15625 431.277344 918.875 432.804688 917.683594 C 433.183594 917.386719 433.5625 917.085938 433.941406 916.800781 C 434.328125 916.527344 434.738281 916.261719 435.105469 916.023438 C 435.875 915.503906 436.621094 915.011719 437.34375 914.566406 C 437.703125 914.328125 438.054688 914.121094 438.402344 913.902344 C 438.765625 913.710938 439.125 913.53125 439.472656 913.351562 C 440.164062 912.984375 440.839844 912.652344 441.464844 912.347656 C 442.714844 911.742188 443.917969 911.371094 444.835938 911.070312 C 445.871094 910.832031 446.589844 910.652344 447.167969 910.652344 C 447.699219 910.59375 447.980469 910.660156 447.980469 910.660156 " fill-opacity="1" fill-rule="nonzero"/><g clip-path="url(#c07d5af266)"><path fill="#ffffff" d="M 426.285156 877.257812 C 426.285156 877.257812 426.265625 877.027344 426.238281 876.554688 C 426.21875 876.082031 426.191406 875.390625 426.105469 874.5 C 425.945312 872.699219 424.003906 871.371094 423.445312 868.226562 C 422.867188 865.101562 423.699219 860.128906 422.042969 856.546875 C 420.382812 852.957031 417.890625 849.695312 414.3125 847.355469 C 412.53125 846.164062 410.4375 845.242188 408.085938 844.464844 C 406.902344 844.085938 405.671875 843.785156 404.34375 843.527344 L 403.207031 843.292969 L 402.621094 843.179688 L 402.144531 843.101562 C 401.492188 843.015625 400.828125 842.921875 400.175781 842.816406 C 394.578125 842.136719 388.75 842.628906 383.039062 844.703125 C 377.316406 846.730469 371.753906 850.332031 366.390625 854.800781 C 361.019531 859.253906 355.875 864.523438 350.644531 869.886719 C 345.445312 875.257812 340.175781 880.78125 334.664062 885.953125 C 329.175781 891.15625 323.40625 896.003906 317.4375 900.15625 C 311.441406 904.304688 305.234375 907.742188 299.117188 910.339844 C 296.046875 911.65625 292.996094 912.746094 290.011719 913.636719 C 287.015625 914.5 284.109375 915.257812 281.285156 915.757812 C 275.640625 916.859375 270.410156 917.339844 265.785156 917.40625 C 261.171875 917.472656 257.164062 917.351562 253.886719 917 C 250.609375 916.667969 248.058594 916.328125 246.316406 916.035156 C 244.601562 915.738281 243.671875 915.570312 243.671875 915.570312 L 243.75 914.800781 C 243.75 914.800781 244.679688 914.8125 246.429688 914.832031 C 248.164062 914.859375 250.710938 914.839844 253.933594 914.6875 C 257.175781 914.566406 261.078125 914.261719 265.492188 913.65625 C 269.90625 912.992188 274.832031 912.046875 280.042969 910.480469 C 285.265625 908.9375 290.722656 906.730469 296.207031 903.878906 C 301.703125 901.035156 307.167969 897.40625 312.4375 893.132812 C 317.769531 888.929688 322.867188 884 327.898438 878.789062 C 332.910156 873.53125 337.828125 867.925781 342.894531 862.277344 C 347.945312 856.632812 353.210938 850.976562 359.066406 845.800781 C 364.902344 840.628906 371.621094 836.082031 379.046875 833.277344 C 386.457031 830.40625 394.433594 829.773438 401.511719 830.597656 C 402.421875 830.699219 403.359375 830.851562 404.269531 830.984375 L 404.941406 831.089844 L 405.519531 831.203125 L 406.664062 831.429688 C 408.398438 831.734375 410.125 832.253906 411.800781 832.824219 C 415.171875 833.949219 418.335938 835.695312 421.066406 837.871094 C 422.421875 838.980469 423.660156 840.183594 424.75 841.464844 C 425.832031 842.75 426.75 844.125 427.535156 845.488281 C 429.109375 848.265625 430.085938 851.078125 430.625 853.722656 C 431.707031 859.019531 431.328125 863.519531 430.683594 867.035156 C 430.019531 870.558594 429.0625 873.171875 428.304688 874.898438 C 427.554688 876.613281 427.027344 877.472656 427.027344 877.472656 L 426.285156 877.257812 " fill-opacity="1" fill-rule="nonzero"/></g><path fill="#ffffff" d="M 428.921875 870.074219 C 428.902344 870.101562 428.910156 870.140625 428.835938 870.378906 C 428.769531 870.613281 428.664062 870.957031 428.53125 871.390625 C 428.304688 872.28125 428.019531 873.597656 427.953125 875.039062 C 427.925781 875.742188 427.972656 876.480469 428.105469 877.160156 C 428.230469 877.851562 428.484375 878.476562 428.816406 879.085938 C 429.527344 880.269531 430.890625 881.40625 432.738281 882.257812 L 432.898438 882.335938 L 432.945312 882.351562 L 432.945312 882.363281 C 433.058594 882.390625 432.832031 882.324219 432.871094 882.324219 L 432.890625 882.34375 L 432.984375 882.390625 L 433.421875 882.5625 L 434.253906 882.929688 C 434.527344 883.035156 434.8125 883.175781 435.070312 883.273438 L 435.796875 883.519531 C 436.726562 883.859375 437.769531 884.191406 438.753906 884.417969 C 440.734375 884.890625 442.648438 885.054688 444.296875 884.988281 C 445.113281 884.949219 445.878906 884.863281 446.570312 884.75 C 447.234375 884.628906 447.820312 884.476562 448.304688 884.324219 C 448.789062 884.183594 449.15625 884.050781 449.414062 883.953125 C 449.628906 883.851562 449.753906 883.792969 449.753906 883.792969 L 449.875 883.746094 C 450.160156 883.621094 450.511719 883.765625 450.625 884.085938 C 450.710938 884.304688 450.664062 884.5625 450.519531 884.722656 C 450.519531 884.722656 450.417969 884.863281 450.199219 885.128906 C 449.980469 885.367188 449.667969 885.726562 449.214844 886.105469 C 448.757812 886.492188 448.199219 886.949219 447.5 887.363281 C 446.796875 887.808594 445.964844 888.226562 445.015625 888.578125 C 444.078125 888.957031 443.019531 889.261719 441.878906 889.457031 C 440.734375 889.667969 439.523438 889.789062 438.253906 889.769531 C 436.992188 889.753906 435.722656 889.707031 434.359375 889.421875 L 433.335938 889.230469 C 433.003906 889.175781 432.746094 889.089844 432.445312 889.023438 L 431.5625 888.804688 L 431.117188 888.691406 L 431.003906 888.664062 L 430.964844 888.664062 L 430.84375 888.617188 L 430.777344 888.578125 L 430.519531 888.5 C 429.175781 888.027344 427.8125 887.375 426.53125 886.464844 C 425.253906 885.546875 424.097656 884.3125 423.226562 882.902344 C 422.328125 881.5 421.824219 879.898438 421.585938 878.441406 C 421.332031 876.960938 421.371094 875.597656 421.511719 874.394531 C 421.804688 872 422.496094 870.253906 423.035156 869.070312 C 423.300781 868.472656 423.558594 868.027344 423.738281 867.707031 C 423.9375 867.382812 424.050781 867.195312 424.050781 867.195312 L 424.171875 866.996094 C 424.996094 865.632812 426.722656 865.222656 428.019531 866.105469 C 429.269531 866.96875 429.660156 868.71875 428.921875 870.074219 " fill-opacity="1" fill-rule="nonzero"/><path fill="#ffffff" d="M 534.386719 873.363281 C 534.386719 873.363281 534.851562 873.457031 535.625 873.816406 C 536.421875 874.082031 537.511719 874.832031 538.894531 875.550781 C 539.539062 876.003906 540.269531 876.507812 541.066406 877.058594 C 541.871094 877.605469 542.742188 878.128906 543.585938 878.867188 C 544.445312 879.566406 545.375 880.324219 546.359375 881.066406 C 546.855469 881.453125 547.363281 881.832031 547.867188 882.238281 C 548.351562 882.683594 548.851562 883.128906 549.363281 883.585938 C 550.386719 884.511719 551.46875 885.441406 552.585938 886.40625 C 553.136719 886.902344 553.703125 887.375 554.273438 887.875 C 554.832031 888.40625 555.390625 888.957031 555.957031 889.496094 C 558.222656 891.695312 560.6875 893.882812 563.160156 896.300781 C 565.574219 898.734375 568.105469 901.246094 570.691406 903.765625 C 571.363281 904.410156 572.035156 905.054688 572.699219 905.714844 L 574.707031 907.601562 C 575.34375 908.238281 576.136719 908.878906 576.875 909.523438 C 577.625 910.160156 578.375 910.832031 579.152344 911.402344 C 582.191406 913.796875 585.488281 915.882812 588.910156 917.585938 C 592.328125 919.292969 595.84375 920.675781 599.347656 921.605469 C 602.863281 922.515625 606.332031 923.027344 609.628906 923.222656 C 612.925781 923.375 616.042969 923.1875 618.867188 922.828125 C 624.53125 922.039062 629.042969 920.46875 632.054688 919.152344 C 633.558594 918.476562 634.707031 917.871094 635.484375 917.4375 C 636.25 917 636.660156 916.726562 636.660156 916.726562 C 636.941406 916.527344 637.019531 916.148438 636.839844 915.871094 C 636.667969 915.617188 636.375 915.523438 636.117188 915.625 L 636.097656 915.625 C 636.097656 915.625 635.703125 915.777344 634.886719 916.035156 C 634.089844 916.308594 632.898438 916.640625 631.363281 917.019531 C 628.3125 917.757812 623.867188 918.582031 618.5625 918.667969 C 615.910156 918.722656 613.058594 918.574219 610.066406 918.144531 C 607.089844 917.757812 604 917.058594 600.914062 916.023438 C 597.816406 914.992188 594.707031 913.683594 591.695312 912.015625 C 588.710938 910.332031 585.761719 908.433594 583.015625 906.207031 C 582.296875 905.679688 581.671875 905.109375 581.015625 904.558594 C 580.355469 903.992188 579.699219 903.488281 579.027344 902.796875 C 577.691406 901.566406 576.367188 900.316406 575.046875 899.085938 C 572.359375 896.5625 569.675781 894.121094 567.070312 891.78125 C 564.398438 889.488281 561.679688 887.429688 559.152344 885.441406 C 558.507812 884.957031 557.882812 884.476562 557.265625 884 C 556.613281 883.566406 555.96875 883.128906 555.332031 882.703125 C 554.0625 881.871094 552.839844 881.054688 551.636719 880.308594 C 551.050781 879.929688 550.472656 879.558594 549.914062 879.199219 C 549.328125 878.855469 548.738281 878.542969 548.171875 878.242188 C 547.042969 877.617188 545.953125 877.058594 544.941406 876.535156 C 543.933594 875.976562 542.902344 875.617188 541.984375 875.230469 C 541.066406 874.859375 540.222656 874.539062 539.453125 874.261719 C 537.835938 873.84375 536.621094 873.449219 535.703125 873.417969 C 534.839844 873.285156 534.386719 873.363281 534.386719 873.363281 " fill-opacity="1" fill-rule="nonzero"/><path fill="#ffffff" d="M 513.117188 882.203125 C 513.117188 882.203125 513.570312 882.296875 514.328125 882.648438 C 515.078125 882.902344 516.136719 883.640625 517.464844 884.34375 C 518.101562 884.777344 518.808594 885.269531 519.578125 885.800781 C 520.335938 886.34375 521.179688 886.84375 521.992188 887.5625 C 522.847656 888.253906 523.738281 888.976562 524.683594 889.707031 C 525.15625 890.074219 525.640625 890.453125 526.132812 890.84375 C 526.609375 891.277344 527.089844 891.703125 527.59375 892.148438 C 528.570312 893.050781 529.609375 893.957031 530.679688 894.886719 C 531.210938 895.359375 531.761719 895.84375 532.320312 896.308594 C 532.859375 896.820312 533.398438 897.339844 533.941406 897.871094 C 536.15625 899.964844 538.488281 902.171875 540.894531 904.457031 C 543.242188 906.824219 545.667969 909.257812 548.179688 911.683594 C 548.824219 912.320312 549.476562 912.953125 550.132812 913.570312 L 552.074219 915.417969 C 552.679688 916.035156 553.449219 916.660156 554.167969 917.265625 C 554.898438 917.882812 555.617188 918.542969 556.375 919.085938 C 559.320312 921.414062 562.523438 923.433594 565.820312 925.101562 C 569.128906 926.777344 572.546875 928.066406 575.957031 928.964844 C 579.351562 929.835938 582.722656 930.339844 585.914062 930.519531 C 589.109375 930.671875 592.128906 930.480469 594.867188 930.121094 C 600.363281 929.355469 604.710938 927.828125 607.628906 926.53125 C 609.089844 925.894531 610.195312 925.28125 610.957031 924.871094 C 611.695312 924.445312 612.09375 924.171875 612.09375 924.171875 L 611.53125 923.089844 C 611.53125 923.089844 611.136719 923.222656 610.347656 923.472656 C 609.582031 923.726562 608.425781 924.058594 606.9375 924.410156 C 603.980469 925.121094 599.691406 925.894531 594.566406 925.953125 C 591.996094 926.019531 589.230469 925.859375 586.359375 925.460938 C 583.480469 925.070312 580.496094 924.398438 577.511719 923.386719 C 574.519531 922.390625 571.535156 921.082031 568.625 919.480469 C 565.734375 917.882812 562.894531 916.050781 560.242188 913.902344 C 559.546875 913.390625 558.941406 912.839844 558.296875 912.300781 C 557.664062 911.75 557.039062 911.269531 556.382812 910.625 C 555.097656 909.410156 553.808594 908.199219 552.539062 907.015625 C 549.933594 904.558594 547.328125 902.210938 544.816406 899.945312 C 542.230469 897.730469 539.585938 895.738281 537.144531 893.828125 C 536.527344 893.363281 535.910156 892.886719 535.3125 892.425781 C 534.667969 892.015625 534.054688 891.589844 533.429688 891.183594 C 532.195312 890.378906 531.023438 889.582031 529.867188 888.863281 C 529.289062 888.5 528.730469 888.140625 528.171875 887.792969 C 527.601562 887.488281 527.042969 887.175781 526.484375 886.871094 C 525.394531 886.285156 524.34375 885.734375 523.347656 885.234375 C 521.386719 884.230469 519.5 883.613281 518.035156 883.042969 C 516.460938 882.648438 515.285156 882.277344 514.40625 882.257812 C 513.5625 882.136719 513.117188 882.203125 513.117188 882.203125 " fill-opacity="1" fill-rule="nonzero"/><path fill="#ffffff" d="M 500.078125 893.296875 C 500.078125 893.296875 500.476562 893.398438 501.121094 893.722656 C 501.785156 893.957031 502.695312 894.613281 503.851562 895.246094 C 504.398438 895.644531 505.015625 896.089844 505.660156 896.574219 C 506.332031 897.039062 507.0625 897.503906 507.773438 898.148438 C 509.195312 899.40625 510.898438 900.589844 512.585938 902.210938 C 513.449219 902.996094 514.339844 903.800781 515.277344 904.636719 C 515.730469 905.054688 516.214844 905.46875 516.6875 905.894531 C 517.152344 906.339844 517.625 906.796875 518.101562 907.28125 C 520.023438 909.109375 522.039062 911.050781 524.125 913.050781 C 526.171875 915.132812 528.292969 917.265625 530.480469 919.386719 C 531.078125 919.964844 531.667969 920.523438 532.261719 921.101562 L 533.996094 922.675781 L 535.742188 924.238281 C 536.328125 924.757812 536.847656 925.308594 537.589844 925.792969 C 538.972656 926.777344 540.355469 927.761719 541.738281 928.738281 C 543.140625 929.636719 544.617188 930.359375 546.039062 931.164062 L 547.109375 931.742188 L 548.238281 932.207031 C 548.996094 932.5 549.734375 932.800781 550.472656 933.097656 C 551.941406 933.742188 553.476562 934.136719 554.980469 934.527344 C 555.742188 934.707031 556.460938 934.933594 557.207031 935.066406 C 557.957031 935.179688 558.707031 935.304688 559.433594 935.417969 C 560.164062 935.523438 560.902344 935.636719 561.613281 935.730469 C 562.34375 935.769531 563.054688 935.816406 563.765625 935.851562 C 564.457031 935.882812 565.148438 935.910156 565.839844 935.929688 C 566.511719 935.890625 567.183594 935.851562 567.839844 935.816406 C 568.5 935.769531 569.144531 935.738281 569.789062 935.710938 C 570.425781 935.644531 571.03125 935.550781 571.628906 935.464844 C 572.839844 935.3125 573.976562 935.105469 575.058594 934.820312 C 576.136719 934.566406 577.152344 934.347656 578.082031 934.015625 C 579.964844 933.464844 581.546875 932.785156 582.828125 932.214844 C 584.105469 931.648438 585.0625 931.097656 585.726562 930.726562 C 586.371094 930.339844 586.71875 930.101562 586.71875 930.101562 L 586.160156 928.992188 C 586.160156 928.992188 585.800781 929.117188 585.128906 929.324219 C 584.445312 929.535156 583.433594 929.820312 582.136719 930.101562 C 580.835938 930.394531 579.246094 930.679688 577.4375 930.917969 C 576.527344 931.070312 575.550781 931.136719 574.527344 931.203125 C 574.023438 931.230469 573.496094 931.285156 572.972656 931.285156 C 572.425781 931.285156 571.882812 931.285156 571.324219 931.316406 C 570.765625 931.316406 570.199219 931.34375 569.621094 931.335938 C 569.050781 931.285156 568.464844 931.238281 567.867188 931.203125 C 567.28125 931.164062 566.664062 931.117188 566.058594 931.078125 C 565.453125 930.972656 564.824219 930.890625 564.199219 930.773438 C 563.585938 930.699219 562.949219 930.605469 562.304688 930.527344 C 561.679688 930.378906 561.046875 930.226562 560.402344 930.066406 C 559.757812 929.902344 559.121094 929.753906 558.476562 929.589844 C 557.816406 929.429688 557.179688 929.15625 556.535156 928.9375 C 555.257812 928.472656 553.910156 928.105469 552.671875 927.429688 C 552.027344 927.148438 551.390625 926.84375 550.746094 926.558594 L 549.773438 926.113281 L 548.84375 925.554688 C 547.613281 924.804688 546.332031 924.105469 545.128906 923.308594 C 543.984375 922.476562 542.828125 921.632812 541.691406 920.789062 C 541.101562 920.429688 540.507812 919.84375 539.929688 919.332031 L 538.175781 917.757812 L 536.441406 916.203125 L 534.839844 914.714844 C 532.558594 912.585938 530.273438 910.511719 528.046875 908.539062 C 525.785156 906.617188 523.453125 904.890625 521.292969 903.226562 C 520.742188 902.796875 520.203125 902.410156 519.683594 902.011719 C 519.121094 901.640625 518.574219 901.292969 518.023438 900.921875 C 516.945312 900.242188 515.890625 899.558594 514.878906 898.921875 C 514.367188 898.609375 513.875 898.289062 513.402344 897.996094 C 512.878906 897.71875 512.378906 897.464844 511.894531 897.207031 C 510.917969 896.695312 509.988281 896.234375 509.109375 895.816406 C 507.375 894.945312 505.707031 894.421875 504.410156 893.957031 C 503.027344 893.628906 501.992188 893.324219 501.207031 893.316406 C 500.460938 893.230469 500.078125 893.296875 500.078125 893.296875 " fill-opacity="1" fill-rule="nonzero"/><path fill="#ffffff" d="M 480.972656 903.992188 C 480.972656 903.992188 481.332031 904.097656 481.898438 904.378906 C 482.46875 904.617188 483.253906 905.203125 484.25 905.792969 C 484.730469 906.132812 485.253906 906.53125 485.820312 906.957031 C 486.398438 907.402344 487.023438 907.808594 487.648438 908.378906 C 488.871094 909.515625 490.359375 910.566406 491.820312 912.027344 C 492.566406 912.699219 493.335938 913.417969 494.140625 914.15625 C 494.558594 914.527344 494.953125 914.90625 495.371094 915.265625 C 495.769531 915.671875 496.1875 916.082031 496.601562 916.496094 C 498.261719 918.117188 500.023438 919.824219 501.84375 921.605469 C 503.625 923.433594 505.472656 925.308594 507.382812 927.15625 L 508.949219 928.691406 L 510.484375 930.066406 L 512.007812 931.4375 C 512.527344 931.894531 512.972656 932.367188 513.636719 932.800781 C 514.859375 933.683594 516.101562 934.554688 517.3125 935.417969 C 518.574219 936.214844 519.871094 936.839844 521.132812 937.539062 L 522.078125 938.0625 L 523.082031 938.476562 C 523.746094 938.734375 524.410156 938.988281 525.0625 939.265625 C 526.359375 939.832031 527.714844 940.171875 529.042969 940.484375 C 529.714844 940.667969 530.359375 940.863281 531.023438 940.988281 C 531.695312 941.09375 532.347656 941.195312 533.003906 941.292969 C 533.648438 941.386719 534.289062 941.472656 534.925781 941.558594 C 535.570312 941.59375 536.195312 941.613281 536.8125 941.640625 C 537.4375 941.652344 538.050781 941.679688 538.660156 941.6875 C 539.265625 941.652344 539.851562 941.625 540.441406 941.59375 C 541.015625 941.558594 541.59375 941.507812 542.144531 941.472656 C 542.703125 941.40625 543.242188 941.308594 543.785156 941.242188 C 544.84375 941.101562 545.847656 940.894531 546.796875 940.648438 C 547.742188 940.410156 548.644531 940.203125 549.457031 939.898438 C 551.117188 939.386719 552.492188 938.78125 553.628906 938.269531 C 554.746094 937.75 555.578125 937.238281 556.167969 936.90625 C 556.714844 936.5625 557.039062 936.335938 557.039062 936.335938 L 556.480469 935.246094 C 556.480469 935.246094 556.167969 935.332031 555.570312 935.511719 C 554.964844 935.683594 554.082031 935.917969 552.9375 936.136719 C 551.789062 936.402344 550.398438 936.628906 548.804688 936.800781 C 548.019531 936.925781 547.167969 936.960938 546.277344 937.019531 C 545.820312 937.046875 545.375 937.085938 544.910156 937.085938 C 544.4375 937.074219 543.964844 937.074219 543.472656 937.085938 C 542.980469 937.085938 542.496094 937.113281 541.984375 937.085938 C 541.492188 937.046875 540.96875 937 540.449219 936.960938 C 539.9375 936.925781 539.40625 936.867188 538.875 936.839844 C 538.347656 936.753906 537.804688 936.660156 537.265625 936.5625 C 536.734375 936.488281 536.1875 936.402344 535.625 936.316406 C 535.085938 936.183594 534.527344 936.042969 533.976562 935.890625 C 533.417969 935.757812 532.859375 935.617188 532.292969 935.492188 C 531.734375 935.332031 531.183594 935.105469 530.613281 934.90625 C 529.496094 934.507812 528.339844 934.175781 527.25 933.597656 C 526.703125 933.332031 526.144531 933.078125 525.585938 932.820312 L 524.730469 932.421875 L 523.9375 931.960938 C 522.863281 931.285156 521.757812 930.671875 520.707031 930 C 519.71875 929.269531 518.726562 928.53125 517.730469 927.800781 C 517.226562 927.488281 516.707031 926.964844 516.203125 926.53125 L 514.671875 925.148438 L 513.144531 923.785156 L 511.742188 922.496094 C 509.734375 920.628906 507.726562 918.820312 505.765625 917.085938 C 503.757812 915.410156 501.699219 913.890625 499.785156 912.453125 C 499.304688 912.082031 498.820312 911.742188 498.363281 911.390625 C 497.863281 911.078125 497.371094 910.765625 496.898438 910.453125 C 495.929688 909.855469 494.992188 909.277344 494.101562 908.71875 C 493.648438 908.445312 493.210938 908.179688 492.785156 907.914062 C 492.332031 907.6875 491.894531 907.460938 491.457031 907.25 C 490.597656 906.804688 489.761719 906.417969 488.984375 906.046875 C 487.441406 905.320312 485.972656 904.890625 484.816406 904.496094 C 483.585938 904.230469 482.667969 903.984375 481.976562 903.984375 C 481.320312 903.925781 480.972656 903.992188 480.972656 903.992188 " fill-opacity="1" fill-rule="nonzero"/><path fill="#ffffff" d="M 463.804688 910.660156 C 463.804688 910.660156 464.089844 910.765625 464.535156 911.050781 C 464.96875 911.269531 465.566406 911.796875 466.324219 912.328125 C 466.683594 912.652344 467.082031 913.011719 467.527344 913.390625 C 467.953125 913.75 468.4375 914.121094 468.890625 914.632812 C 469.808594 915.617188 470.929688 916.527344 472.035156 917.765625 C 473.125 919 474.414062 920.15625 475.644531 921.574219 C 476.898438 922.996094 478.261719 924.398438 479.636719 925.894531 C 480.980469 927.429688 482.390625 929.011719 483.871094 930.558594 L 485.09375 931.863281 L 486.277344 933.011719 L 487.460938 934.167969 C 487.867188 934.554688 488.21875 934.945312 488.738281 935.332031 C 489.726562 936.082031 490.710938 936.839844 491.6875 937.597656 C 492.691406 938.289062 493.722656 938.835938 494.746094 939.445312 C 495.730469 940.097656 496.859375 940.46875 497.902344 940.941406 C 498.960938 941.441406 500.050781 941.765625 501.121094 942.078125 C 501.671875 942.230469 502.203125 942.398438 502.734375 942.511719 C 503.28125 942.628906 503.8125 942.722656 504.332031 942.816406 C 504.863281 942.902344 505.394531 942.996094 505.898438 943.074219 C 506.425781 943.121094 506.9375 943.15625 507.449219 943.195312 C 507.960938 943.214844 508.457031 943.253906 508.949219 943.28125 C 509.441406 943.273438 509.921875 943.253906 510.386719 943.242188 C 511.34375 943.214844 512.253906 943.148438 513.125 943.007812 C 514.007812 942.910156 514.820312 942.769531 515.597656 942.578125 C 516.375 942.398438 517.09375 942.238281 517.769531 942.011719 C 519.121094 941.625 520.25 941.140625 521.167969 940.742188 C 522.089844 940.335938 522.769531 939.9375 523.246094 939.660156 C 523.707031 939.378906 523.953125 939.199219 523.953125 939.199219 L 523.441406 938.089844 C 523.441406 938.089844 523.1875 938.136719 522.714844 938.242188 C 522.222656 938.34375 521.492188 938.46875 520.5625 938.582031 C 519.632812 938.722656 518.515625 938.835938 517.238281 938.886719 C 516.601562 938.953125 515.910156 938.933594 515.210938 938.933594 C 514.5 938.960938 513.75 938.875 512.972656 938.835938 C 512.605469 938.800781 512.207031 938.789062 511.800781 938.753906 C 511.410156 938.6875 511.003906 938.648438 510.597656 938.582031 C 510.1875 938.535156 509.773438 938.476562 509.34375 938.410156 C 508.9375 938.324219 508.511719 938.242188 508.085938 938.144531 C 507.679688 938.050781 507.242188 937.964844 506.804688 937.871094 C 506.378906 937.738281 505.945312 937.605469 505.519531 937.472656 C 505.082031 937.332031 504.648438 937.207031 504.210938 937.074219 C 503.765625 936.933594 503.339844 936.714844 502.902344 936.554688 C 502.050781 936.195312 501.140625 935.882812 500.308594 935.378906 C 499.882812 935.152344 499.464844 934.914062 499.027344 934.707031 L 498.375 934.367188 L 497.757812 933.957031 C 496.945312 933.410156 496.082031 932.859375 495.285156 932.308594 L 493.023438 930.492188 C 492.644531 930.234375 492.234375 929.789062 491.847656 929.429688 L 490.652344 928.273438 C 489.894531 927.527344 489.148438 926.804688 488.398438 926.066406 C 486.84375 924.503906 485.253906 922.996094 483.707031 921.546875 C 482.136719 920.15625 480.507812 918.875 478.992188 917.683594 C 478.601562 917.386719 478.234375 917.085938 477.855469 916.800781 C 477.457031 916.527344 477.066406 916.261719 476.679688 916.023438 C 475.910156 915.503906 475.164062 915.011719 474.441406 914.566406 C 474.074219 914.328125 473.734375 914.121094 473.382812 913.902344 C 473.023438 913.710938 472.671875 913.53125 472.320312 913.351562 C 471.628906 912.984375 470.945312 912.652344 470.332031 912.347656 C 469.070312 911.742188 467.878906 911.371094 466.949219 911.070312 C 465.933594 910.832031 465.195312 910.652344 464.617188 910.652344 C 464.078125 910.59375 463.804688 910.660156 463.804688 910.660156 " fill-opacity="1" fill-rule="nonzero"/><g clip-path="url(#300029b5a4)"><path fill="#ffffff" d="M 485.507812 877.257812 C 485.507812 877.257812 485.519531 877.027344 485.546875 876.554688 C 485.574219 876.082031 485.605469 875.390625 485.679688 874.5 C 485.839844 872.699219 487.78125 871.371094 488.351562 868.226562 C 488.917969 865.101562 488.085938 860.128906 489.753906 856.546875 C 491.410156 852.957031 493.914062 849.695312 497.476562 847.355469 C 499.253906 846.164062 501.359375 845.242188 503.707031 844.464844 C 504.894531 844.085938 506.113281 843.785156 507.449219 843.527344 L 508.585938 843.292969 L 509.164062 843.179688 L 509.648438 843.101562 C 510.300781 843.015625 510.957031 842.921875 511.621094 842.816406 C 517.210938 842.136719 523.046875 842.628906 528.75 844.703125 C 534.472656 846.730469 540.042969 850.332031 545.394531 854.800781 C 550.785156 859.253906 555.921875 864.523438 561.140625 869.886719 C 566.351562 875.257812 571.609375 880.78125 577.125 885.953125 C 582.609375 891.15625 588.378906 896.003906 594.355469 900.15625 C 600.34375 904.304688 606.558594 907.742188 612.6875 910.339844 C 615.738281 911.65625 618.789062 912.746094 621.773438 913.636719 C 624.777344 914.5 627.675781 915.257812 630.507812 915.757812 C 636.15625 916.859375 641.386719 917.339844 646 917.40625 C 650.625 917.472656 654.621094 917.351562 657.910156 917 C 661.167969 916.667969 663.734375 916.328125 665.460938 916.035156 C 667.191406 915.738281 668.113281 915.570312 668.113281 915.570312 L 668.035156 914.800781 C 668.035156 914.800781 667.117188 914.8125 665.363281 914.832031 C 663.621094 914.859375 661.082031 914.839844 657.851562 914.6875 C 654.621094 914.566406 650.707031 914.261719 646.292969 913.65625 C 641.878906 912.992188 636.941406 912.046875 631.742188 910.480469 C 626.53125 908.9375 621.0625 906.730469 615.578125 903.878906 C 610.082031 901.035156 604.617188 897.40625 599.347656 893.132812 C 594.015625 888.929688 588.929688 884 583.898438 878.789062 C 578.875 873.53125 573.96875 867.925781 568.890625 862.277344 C 563.839844 856.632812 558.582031 850.976562 552.71875 845.800781 C 546.882812 840.628906 540.175781 836.082031 532.746094 833.277344 C 525.339844 830.40625 517.359375 829.773438 510.285156 830.597656 C 509.363281 830.699219 508.425781 830.851562 507.527344 830.984375 L 506.84375 831.089844 L 506.265625 831.203125 L 505.121094 831.429688 C 503.394531 831.734375 501.664062 832.253906 499.984375 832.824219 C 496.621094 833.949219 493.449219 835.695312 490.71875 837.871094 C 489.363281 838.980469 488.125 840.183594 487.042969 841.464844 C 485.964844 842.75 485.035156 844.125 484.238281 845.488281 C 482.6875 848.265625 481.699219 851.078125 481.167969 853.722656 C 480.082031 859.019531 480.46875 863.519531 481.101562 867.035156 C 481.765625 870.558594 482.722656 873.171875 483.480469 874.898438 C 484.230469 876.613281 484.761719 877.472656 484.761719 877.472656 L 485.507812 877.257812 " fill-opacity="1" fill-rule="nonzero"/></g><path fill="#ffffff" d="M 482.875 870.074219 C 482.894531 870.101562 482.882812 870.140625 482.960938 870.378906 C 483.027344 870.613281 483.132812 870.957031 483.246094 871.390625 C 483.492188 872.28125 483.765625 873.597656 483.832031 875.039062 C 483.871094 875.742188 483.8125 876.480469 483.679688 877.160156 C 483.558594 877.851562 483.3125 878.476562 482.960938 879.085938 C 482.277344 880.269531 480.894531 881.40625 479.058594 882.257812 L 478.886719 882.335938 L 478.847656 882.351562 L 478.839844 882.363281 C 478.734375 882.390625 478.960938 882.324219 478.933594 882.324219 L 478.90625 882.34375 L 478.792969 882.390625 L 478.382812 882.5625 L 477.53125 882.929688 C 477.265625 883.035156 476.972656 883.175781 476.726562 883.273438 L 475.996094 883.519531 C 475.058594 883.859375 474.015625 884.191406 473.039062 884.417969 C 471.050781 884.890625 469.148438 885.054688 467.488281 884.988281 C 466.664062 884.949219 465.917969 884.863281 465.234375 884.75 C 464.550781 884.628906 463.972656 884.476562 463.492188 884.324219 C 463.015625 884.183594 462.628906 884.050781 462.382812 883.953125 C 462.15625 883.851562 462.03125 883.792969 462.03125 883.792969 L 461.917969 883.746094 C 461.625 883.621094 461.285156 883.765625 461.160156 884.085938 C 461.085938 884.304688 461.121094 884.5625 461.265625 884.722656 C 461.265625 884.722656 461.367188 884.863281 461.597656 885.128906 C 461.8125 885.367188 462.117188 885.726562 462.570312 886.105469 C 463.027344 886.492188 463.585938 886.949219 464.296875 887.363281 C 464.988281 887.808594 465.820312 888.226562 466.769531 888.578125 C 467.707031 888.957031 468.769531 889.261719 469.90625 889.457031 C 471.050781 889.667969 472.265625 889.789062 473.535156 889.769531 C 474.792969 889.753906 476.0625 889.707031 477.425781 889.421875 L 478.449219 889.230469 C 478.78125 889.175781 479.046875 889.089844 479.339844 889.023438 L 480.222656 888.804688 L 480.6875 888.691406 L 480.78125 888.664062 L 480.820312 888.664062 L 480.941406 888.617188 L 481.019531 888.578125 L 481.265625 888.5 C 482.609375 888.027344 483.972656 887.375 485.253906 886.464844 C 486.53125 885.546875 487.6875 884.3125 488.570312 882.902344 C 489.46875 881.5 489.960938 879.898438 490.207031 878.441406 C 490.464844 876.960938 490.417969 875.597656 490.285156 874.394531 C 489.988281 872 489.289062 870.253906 488.769531 869.070312 C 488.492188 868.472656 488.238281 868.027344 488.046875 867.707031 C 487.859375 867.382812 487.734375 867.195312 487.734375 867.195312 L 487.621094 866.996094 C 486.789062 865.632812 485.0625 865.222656 483.765625 866.105469 C 482.515625 866.96875 482.125 868.71875 482.875 870.074219 " fill-opacity="1" fill-rule="nonzero"/><path fill="#ffffff" d="M 476.933594 937.539062 C 476.933594 937.539062 477.019531 937.625 477.171875 937.816406 C 477.359375 938.050781 477.691406 938.449219 477.976562 938.835938 C 478.59375 939.660156 479.398438 940.855469 480.316406 942.484375 C 481.207031 944.113281 482.183594 946.199219 482.933594 948.832031 C 483.679688 951.4375 484.078125 954.8125 483.445312 958.402344 C 482.816406 961.984375 481.054688 965.640625 478.527344 968.347656 C 477.949219 969.078125 477.230469 969.609375 476.566406 970.261719 C 476.234375 970.566406 475.894531 970.871094 475.550781 971.171875 L 475.417969 971.285156 L 475.363281 971.34375 C 474.972656 971.664062 475.238281 971.457031 475.144531 971.523438 L 475.105469 971.542969 L 474.878906 971.703125 L 474.414062 972.035156 C 473.789062 972.46875 473.164062 972.90625 472.53125 973.351562 C 471.734375 973.824219 470.917969 974.300781 470.09375 974.78125 C 466.890625 976.535156 463.632812 977.765625 460.335938 978.769531 C 457.058594 979.773438 453.847656 980.570312 450.882812 981.585938 C 447.925781 982.597656 445.253906 983.886719 443.140625 985.773438 C 441.027344 987.667969 439.457031 990.167969 438.367188 992.914062 L 438.308594 993.046875 L 438.28125 993.105469 C 438.269531 993.144531 438.335938 992.867188 438.300781 993.011719 L 438.289062 993.046875 L 438.203125 993.324219 L 438.035156 993.902344 L 437.683594 995.039062 C 437.589844 995.40625 437.457031 995.785156 437.371094 996.15625 L 437.199219 997.160156 C 437.117188 997.84375 436.925781 998.476562 436.90625 999.1875 C 436.878906 999.898438 436.851562 1000.589844 436.8125 1001.261719 C 436.878906 1004.027344 437.304688 1006.664062 438.054688 1009.03125 C 438.820312 1011.378906 439.710938 1013.523438 440.714844 1015.304688 C 441.683594 1017.09375 442.675781 1018.589844 443.527344 1019.785156 C 445.273438 1022.171875 446.464844 1023.375 446.464844 1023.375 C 446.464844 1023.375 445.140625 1022.332031 443.101562 1020.152344 C 442.097656 1019.074219 440.914062 1017.671875 439.710938 1015.957031 C 438.460938 1014.261719 437.265625 1012.1875 436.160156 1009.789062 C 435.058594 1007.375 434.234375 1004.578125 433.78125 1001.488281 C 433.734375 1000.703125 433.675781 999.90625 433.609375 999.113281 C 433.542969 998.316406 433.648438 997.453125 433.675781 996.582031 C 433.703125 996.15625 433.722656 995.71875 433.761719 995.273438 C 433.808594 994.875 433.882812 994.496094 433.949219 994.109375 L 434.148438 992.945312 L 434.253906 992.347656 L 434.3125 992.054688 L 434.3125 992.015625 C 434.292969 992.128906 434.367188 991.828125 434.367188 991.84375 L 434.386719 991.777344 L 434.433594 991.628906 C 435.304688 988.292969 436.859375 984.824219 439.398438 981.945312 C 441.898438 979.035156 445.207031 976.960938 448.398438 975.390625 C 451.621094 973.824219 454.785156 972.621094 457.683594 971.316406 C 460.554688 970.046875 463.234375 968.566406 465.375 967.011719 C 465.878906 966.644531 466.390625 966.265625 466.875 965.886719 C 467.460938 965.363281 468.027344 964.863281 468.597656 964.34375 L 469.015625 963.972656 L 469.222656 963.773438 L 469.25 963.765625 C 469.183594 963.820312 469.449219 963.585938 469.089844 963.886719 L 469.128906 963.847656 L 469.195312 963.765625 L 469.761719 963.082031 C 470.09375 962.628906 470.566406 962.230469 470.804688 961.773438 C 472.054688 960.011719 472.445312 958.34375 472.519531 956.886719 C 472.558594 955.398438 472.246094 953.976562 471.675781 952.660156 C 471.089844 951.371094 470.40625 950.214844 469.742188 949.324219 C 469.070312 948.433594 468.484375 947.753906 468.085938 947.363281 C 467.878906 947.136719 467.78125 947.082031 467.726562 947.015625 C 467.601562 946.890625 467.535156 946.824219 467.535156 946.824219 L 467.507812 946.796875 C 464.855469 944.292969 464.675781 940.03125 467.136719 937.320312 C 469.582031 934.59375 473.722656 934.421875 476.375 936.941406 C 476.574219 937.121094 476.773438 937.332031 476.933594 937.539062 " fill-opacity="1" fill-rule="nonzero"/><path fill="#ffffff" d="M 441.492188 943.925781 C 441.5 943.925781 441.339844 944.078125 441.207031 944.171875 C 441.074219 944.277344 440.734375 944.589844 440.382812 944.9375 C 440.015625 945.300781 439.570312 945.761719 439.085938 946.320312 C 438.582031 946.890625 438.054688 947.535156 437.503906 948.246094 C 436.972656 948.984375 436.421875 949.78125 435.921875 950.640625 C 435.648438 951.085938 435.449219 951.523438 435.203125 951.976562 C 434.964844 952.441406 434.8125 952.898438 434.585938 953.390625 C 434.40625 953.855469 434.292969 954.328125 434.121094 954.828125 C 434.015625 955.324219 433.941406 955.796875 433.835938 956.289062 C 433.855469 956.761719 433.761719 957.265625 433.808594 957.746094 L 433.894531 958.488281 C 433.921875 958.734375 433.941406 958.980469 434.035156 959.226562 L 434.261719 959.957031 L 434.367188 960.335938 L 434.378906 960.363281 L 434.386719 960.363281 C 434.339844 960.296875 434.492188 960.515625 434.292969 960.230469 L 434.3125 960.285156 L 434.511719 960.65625 L 435.03125 961.613281 L 435.285156 962.097656 L 435.515625 962.445312 C 436.054688 963.355469 436.8125 964.410156 437.636719 965.261719 C 438.054688 965.695312 438.460938 966.132812 438.925781 966.511719 C 439.351562 966.910156 439.804688 967.269531 440.28125 967.589844 C 441.179688 968.292969 442.136719 968.859375 443.027344 969.316406 C 444.835938 970.292969 446.503906 970.851562 447.679688 971.183594 C 448.257812 971.34375 448.730469 971.457031 449.050781 971.523438 C 449.355469 971.582031 449.527344 971.617188 449.527344 971.617188 L 449.574219 971.636719 C 449.90625 971.695312 450.125 972.007812 450.058594 972.347656 C 450.007812 972.632812 449.792969 972.820312 449.527344 972.839844 C 449.527344 972.839844 449.328125 972.867188 448.976562 972.90625 C 448.625 972.933594 448.105469 972.945312 447.453125 972.964844 C 446.144531 972.964844 444.269531 972.867188 442.011719 972.394531 C 440.886719 972.148438 439.65625 971.828125 438.402344 971.34375 C 437.757812 971.125 437.105469 970.851562 436.472656 970.527344 C 435.796875 970.226562 435.152344 969.855469 434.5 969.457031 C 433.183594 968.691406 431.921875 967.753906 430.597656 966.484375 L 430.113281 966.027344 L 429.746094 965.640625 L 428.988281 964.863281 L 428.804688 964.671875 L 428.710938 964.558594 L 428.664062 964.523438 L 428.503906 964.292969 L 428.097656 963.707031 L 427.300781 962.523438 C 427.007812 962.125 426.808594 961.679688 426.617188 961.234375 L 426.03125 959.878906 C 425.671875 958.949219 425.492188 958.003906 425.246094 957.046875 C 425.09375 956.117188 424.996094 955.160156 424.921875 954.222656 C 424.929688 953.332031 424.921875 952.394531 424.980469 951.523438 C 425.082031 950.679688 425.160156 949.800781 425.3125 948.984375 C 425.472656 948.207031 425.625 947.394531 425.8125 946.664062 C 426.191406 945.183594 426.65625 943.820312 427.101562 942.597656 C 427.574219 941.386719 428.046875 940.296875 428.492188 939.347656 C 428.957031 938.410156 429.375 937.597656 429.761719 936.925781 C 430.132812 936.25 430.417969 935.757812 430.703125 935.332031 C 430.9375 934.960938 431.070312 934.78125 431.070312 934.78125 C 433.183594 931.503906 437.476562 930.613281 440.660156 932.792969 C 443.84375 934.960938 444.703125 939.347656 442.589844 942.609375 C 442.296875 943.074219 441.957031 943.480469 441.578125 943.847656 L 441.492188 943.925781 " fill-opacity="1" fill-rule="nonzero"/><path fill="#ffffff" d="M 477.492188 976.421875 C 477.492188 976.421875 477.824219 976.828125 478.269531 977.585938 C 478.746094 978.34375 479.359375 979.511719 479.964844 981.0625 C 480.535156 982.625 481.132812 984.605469 481.386719 986.9375 C 481.652344 989.269531 481.597656 991.949219 481.027344 994.800781 C 480.488281 997.644531 479.359375 1000.597656 477.824219 1003.5 C 476.273438 1006.40625 474.214844 1009.203125 471.875 1011.84375 C 470.699219 1013.171875 469.449219 1014.441406 468.132812 1015.710938 C 467.5 1016.316406 466.824219 1016.933594 466.132812 1017.539062 C 465.425781 1018.136719 464.730469 1018.734375 464.023438 1019.300781 C 461.160156 1021.632812 458.136719 1023.78125 455.171875 1025.886719 C 452.207031 1027.988281 449.308594 1030.09375 446.828125 1032.414062 C 444.324219 1034.742188 442.296875 1037.3125 441.007812 1040.097656 C 439.710938 1042.882812 439.019531 1045.875 438.886719 1048.765625 C 438.726562 1051.484375 439.179688 1054.148438 439.984375 1056.375 C 440.792969 1058.628906 441.945312 1060.542969 443.148438 1062.09375 C 444.351562 1063.660156 445.59375 1064.878906 446.664062 1065.808594 C 448.84375 1067.675781 450.285156 1068.394531 450.125 1068.320312 C 451.78125 1069.277344 452.359375 1071.398438 451.441406 1073.09375 C 450.511719 1074.773438 448.425781 1075.378906 446.796875 1074.441406 C 446.644531 1074.34375 444.863281 1073.292969 442.277344 1070.859375 C 440.988281 1069.636719 439.523438 1068.027344 438.082031 1065.96875 C 436.652344 1063.894531 435.257812 1061.355469 434.328125 1058.324219 C 433.421875 1055.292969 432.984375 1051.863281 433.363281 1048.234375 C 433.703125 1044.777344 434.699219 1041.121094 436.5 1037.71875 C 438.289062 1034.296875 440.933594 1031.332031 443.84375 1028.890625 C 446.742188 1026.433594 449.875 1024.398438 452.945312 1022.425781 C 456.027344 1020.457031 459.066406 1018.535156 461.910156 1016.441406 C 462.609375 1015.929688 463.3125 1015.398438 463.992188 1014.859375 C 464.65625 1014.328125 465.328125 1013.796875 466 1013.199219 C 467.28125 1012.089844 468.539062 1010.917969 469.707031 1009.722656 C 472.035156 1007.335938 474.074219 1004.816406 475.636719 1002.210938 C 477.210938 999.574219 478.367188 996.90625 479 994.308594 C 479.652344 991.730469 479.816406 989.269531 479.652344 987.097656 C 479.539062 984.917969 479.074219 983.054688 478.601562 981.574219 C 478.101562 980.097656 477.578125 978.96875 477.179688 978.242188 C 476.785156 977.5 476.546875 977.160156 476.546875 977.160156 C 476.339844 976.894531 476.40625 976.515625 476.667969 976.308594 C 476.933594 976.109375 477.285156 976.15625 477.484375 976.421875 L 477.492188 976.421875 " fill-opacity="1" fill-rule="nonzero"/><path fill="#ffffff" d="M 466.011719 1023.214844 C 466.011719 1023.214844 467.433594 1024.664062 469.613281 1027.429688 C 471.769531 1030.1875 474.785156 1034.28125 477.53125 1039.746094 C 478.894531 1042.492188 480.175781 1045.601562 481.054688 1049.070312 C 481.910156 1052.527344 482.355469 1056.390625 481.738281 1060.378906 C 481.152344 1064.351562 479.386719 1068.320312 476.726562 1071.542969 C 475.382812 1073.179688 473.902344 1074.601562 472.292969 1075.925781 C 470.683594 1077.273438 469.015625 1078.417969 467.28125 1079.519531 C 463.824219 1081.699219 460.230469 1083.488281 456.820312 1085.296875 C 453.421875 1087.097656 450.179688 1088.925781 447.59375 1091.152344 C 444.996094 1093.339844 443.265625 1095.957031 442.507812 1098.75 C 442.296875 1099.421875 442.164062 1100.21875 442.070312 1100.804688 C 442.023438 1101.234375 441.976562 1101.648438 441.929688 1102.058594 C 441.910156 1102.390625 441.898438 1102.730469 441.878906 1103.042969 C 441.863281 1104.453125 441.976562 1105.816406 442.230469 1107.058594 C 442.742188 1109.609375 443.765625 1111.769531 444.914062 1113.511719 C 446.097656 1115.265625 447.367188 1116.648438 448.492188 1117.679688 C 450.777344 1119.746094 452.359375 1120.511719 452.199219 1120.425781 C 453.828125 1121.367188 454.414062 1123.488281 453.496094 1125.175781 C 452.585938 1126.851562 450.511719 1127.449219 448.871094 1126.5 C 448.730469 1126.40625 446.769531 1125.296875 444.011719 1122.503906 C 442.65625 1121.117188 441.105469 1119.308594 439.691406 1116.921875 C 438.289062 1114.523438 437.050781 1111.539062 436.546875 1108.09375 C 436.300781 1106.378906 436.234375 1104.578125 436.367188 1102.703125 C 436.414062 1102.238281 436.472656 1101.746094 436.519531 1101.261719 C 436.585938 1100.855469 436.652344 1100.4375 436.71875 1100.03125 C 436.925781 1098.960938 437.144531 1098.097656 437.476562 1097.101562 C 438.101562 1095.207031 439.058594 1093.339844 440.289062 1091.664062 C 441.53125 1090.015625 443.027344 1088.554688 444.628906 1087.335938 C 447.859375 1084.84375 451.429688 1083.089844 454.984375 1081.421875 C 458.546875 1079.753906 462.109375 1078.203125 465.453125 1076.304688 C 467.121094 1075.367188 468.757812 1074.34375 470.246094 1073.226562 C 471.761719 1072.109375 473.183594 1070.839844 474.375 1069.476562 C 476.820312 1066.726562 478.449219 1063.382812 479.105469 1059.917969 C 479.777344 1056.421875 479.519531 1052.867188 478.828125 1049.597656 C 478.136719 1046.332031 477.019531 1043.316406 475.789062 1040.628906 C 473.335938 1035.226562 470.539062 1031.097656 468.503906 1028.300781 C 467.46875 1026.910156 466.636719 1025.847656 466.039062 1025.128906 C 465.453125 1024.425781 465.140625 1024.046875 465.140625 1024.046875 L 465.121094 1024.046875 C 464.914062 1023.792969 464.941406 1023.394531 465.175781 1023.167969 C 465.425781 1022.96875 465.785156 1022.976562 466.011719 1023.214844 " fill-opacity="1" fill-rule="nonzero"/><path fill="#ffffff" d="M 461.445312 1086.8125 C 461.445312 1086.8125 462.847656 1087.496094 465.0625 1089.058594 C 467.261719 1090.640625 470.378906 1093.066406 473.222656 1096.902344 C 474.632812 1098.835938 475.941406 1101.148438 476.773438 1103.855469 C 477.636719 1106.539062 477.929688 1109.609375 477.503906 1112.675781 C 477.105469 1115.765625 475.996094 1118.808594 474.480469 1121.613281 C 474.0625 1122.320312 473.65625 1123.015625 473.238281 1123.714844 C 473.011719 1124.035156 472.832031 1124.339844 472.578125 1124.679688 C 472.3125 1125.023438 472.035156 1125.402344 471.753906 1125.695312 C 470.671875 1126.953125 469.480469 1128.054688 468.246094 1129.085938 C 465.785156 1131.125 463.1875 1132.839844 460.6875 1134.515625 C 458.1875 1136.171875 455.75 1137.773438 453.582031 1139.433594 C 451.410156 1141.101562 449.507812 1142.882812 448.332031 1144.691406 C 447.753906 1145.601562 447.375 1146.492188 447.195312 1147.332031 C 447.175781 1147.550781 447.101562 1147.769531 447.101562 1147.960938 C 447.074219 1148.234375 447.015625 1148.613281 447.023438 1148.820312 C 447.007812 1149.238281 447.007812 1149.710938 447.035156 1150.175781 C 447.308594 1153.898438 449.355469 1156.449219 450.9375 1157.933594 C 452.558594 1159.449219 453.734375 1159.980469 453.5625 1159.894531 C 455.171875 1160.816406 455.75 1162.910156 454.851562 1164.558594 C 453.949219 1166.214844 451.90625 1166.8125 450.292969 1165.875 C 450.132812 1165.769531 448.558594 1164.878906 446.417969 1162.550781 C 445.359375 1161.382812 444.164062 1159.820312 443.167969 1157.773438 C 442.203125 1155.746094 441.472656 1153.140625 441.492188 1150.328125 C 441.5 1149.636719 441.558594 1148.933594 441.652344 1148.148438 C 441.691406 1147.742188 441.757812 1147.523438 441.804688 1147.183594 C 441.871094 1146.765625 441.976562 1146.375 442.078125 1145.988281 C 442.515625 1144.40625 443.28125 1142.9375 444.210938 1141.675781 C 446.078125 1139.148438 448.464844 1137.28125 450.910156 1135.605469 C 453.382812 1133.917969 455.96875 1132.421875 458.554688 1130.933594 C 461.132812 1129.410156 463.71875 1127.902344 466.066406 1126.179688 C 468.445312 1124.464844 470.4375 1122.503906 471.820312 1120.019531 C 473.316406 1117.558594 474.414062 1114.914062 474.878906 1112.242188 C 475.363281 1109.589844 475.25 1106.925781 474.59375 1104.511719 C 473.96875 1102.085938 472.890625 1099.914062 471.648438 1098.058594 C 469.183594 1094.34375 466.296875 1091.835938 464.238281 1090.214844 C 463.214844 1089.429688 462.355469 1088.839844 461.777344 1088.460938 C 461.179688 1088.074219 460.875 1087.894531 460.875 1087.894531 C 460.582031 1087.730469 460.476562 1087.34375 460.640625 1087.058594 C 460.800781 1086.777344 461.140625 1086.652344 461.425781 1086.804688 L 461.445312 1086.8125 " fill-opacity="1" fill-rule="nonzero"/><path fill="#ff3131" d="M 1511.875 949.867188 C 1512 944.347656 1512.328125 938.84375 1513.027344 933.441406 C 1511.570312 932.453125 1510.167969 931.382812 1508.835938 930.21875 C 1507.695312 929.21875 1506.074219 927.84375 1504.082031 926.261719 C 1502.578125 934.527344 1502.011719 942.933594 1501.875 951.128906 C 1474.511719 967.957031 1452.34375 998.917969 1446.113281 1029.484375 C 1442.535156 1047.035156 1447.0625 1065.472656 1457.382812 1075.363281 C 1461.605469 1079.410156 1468.328125 1083.566406 1478.078125 1083.628906 C 1480.855469 1088.304688 1486.03125 1090.738281 1490.730469 1089.175781 C 1496.28125 1087.332031 1499.050781 1080.625 1496.917969 1074.195312 C 1494.78125 1067.765625 1488.546875 1064.046875 1482.996094 1065.894531 C 1479.59375 1067.023438 1477.246094 1069.980469 1476.421875 1073.578125 C 1471.71875 1073.199219 1467.660156 1071.390625 1464.289062 1068.160156 C 1456.46875 1060.664062 1453.015625 1045.582031 1455.890625 1031.476562 C 1461.574219 1003.605469 1482.777344 974.261719 1507.929688 959.113281 C 1533.082031 974.261719 1554.289062 1003.605469 1559.972656 1031.476562 C 1562.847656 1045.582031 1559.394531 1060.664062 1551.574219 1068.160156 C 1548.203125 1071.390625 1544.140625 1073.199219 1539.441406 1073.578125 C 1538.617188 1069.980469 1536.265625 1067.023438 1532.867188 1065.894531 C 1527.3125 1064.046875 1521.082031 1067.765625 1518.945312 1074.195312 C 1516.808594 1080.625 1519.578125 1087.332031 1525.132812 1089.175781 C 1529.832031 1090.738281 1535.003906 1088.308594 1537.78125 1083.628906 C 1547.535156 1083.570312 1554.257812 1079.410156 1558.476562 1075.363281 C 1568.796875 1065.472656 1573.328125 1047.035156 1569.75 1029.480469 C 1563.359375 998.136719 1540.203125 966.371094 1511.875 949.867188 " fill-opacity="1" fill-rule="nonzero"/><g clip-path="url(#d7b77de17c)"><path fill="#ff3131" d="M 1449.164062 894.355469 C 1454.796875 894.355469 1459.363281 898.921875 1459.363281 904.554688 C 1459.363281 910.191406 1454.796875 914.757812 1449.164062 914.757812 C 1443.527344 914.757812 1438.960938 910.191406 1438.960938 904.554688 C 1438.960938 898.921875 1443.527344 894.355469 1449.164062 894.355469 Z M 1449.164062 925.03125 C 1460.46875 925.03125 1469.636719 915.863281 1469.636719 904.554688 C 1469.636719 903.953125 1469.597656 903.359375 1469.546875 902.765625 C 1487.648438 904.832031 1509.320312 923.273438 1512.488281 926.046875 C 1522.503906 934.816406 1536.46875 937.65625 1549.851562 933.632812 C 1563.402344 929.566406 1573.6875 919.167969 1577.355469 905.820312 C 1580.714844 893.601562 1577.035156 881.820312 1567.757812 875.070312 C 1563.226562 871.777344 1557.984375 870.132812 1552.609375 870.132812 C 1547.164062 870.132812 1541.582031 871.816406 1536.457031 875.1875 C 1523.90625 883.441406 1515.828125 893.691406 1510.660156 904.871094 C 1513.808594 907.113281 1516.570312 909.25 1518.792969 911.0625 C 1523.253906 900.554688 1530.441406 891.089844 1541.941406 883.527344 C 1548.570312 879.164062 1556.214844 879.015625 1561.886719 883.144531 C 1567.722656 887.382812 1569.964844 895.0625 1567.734375 903.175781 C 1564.980469 913.1875 1557.222656 921.003906 1546.980469 924.078125 C 1536.914062 927.101562 1526.476562 925.03125 1519.0625 918.539062 C 1502.871094 904.363281 1482.917969 892.648438 1466.136719 892.648438 C 1466.023438 892.648438 1465.914062 892.65625 1465.800781 892.660156 C 1462.085938 887.472656 1456.027344 884.082031 1449.164062 884.082031 C 1437.855469 884.082031 1428.691406 893.25 1428.691406 904.554688 C 1428.691406 915.863281 1437.855469 925.03125 1449.164062 925.03125 " fill-opacity="1" fill-rule="nonzero"/></g><g fill="#d13535" fill-opacity="1"><g transform="translate(764.997553, 1211.875098)"><g><path d="M 55.59375 -16.140625 L 19.515625 -16.140625 L 12.671875 0 L 0.109375 0 L 31.6875 -71.546875 L 44.046875 -71.546875 L 75.328125 0 L 62.453125 0 Z M 51 -26.875 L 37.515625 -58.671875 L 24.015625 -26.875 Z M 51 -26.875 "/></g></g></g><g fill="#d13535" fill-opacity="1"><g transform="translate(840.416982, 1211.875098)"><g><path d="M 9.40625 -71.546875 L 38.734375 -71.546875 C 49.429688 -71.546875 58.269531 -68.171875 65.25 -61.421875 C 72.238281 -54.679688 75.734375 -46.128906 75.734375 -35.765625 C 75.734375 -25.410156 72.222656 -16.859375 65.203125 -10.109375 C 58.179688 -3.367188 49.253906 0 38.421875 0 L 9.40625 0 Z M 21.46875 -60.703125 L 21.46875 -10.828125 L 39.046875 -10.828125 C 46.054688 -10.828125 51.894531 -13.160156 56.5625 -17.828125 C 61.238281 -22.492188 63.578125 -28.4375 63.578125 -35.65625 C 63.578125 -42.882812 61.171875 -48.863281 56.359375 -53.59375 C 51.554688 -58.332031 45.613281 -60.703125 38.53125 -60.703125 Z M 21.46875 -60.703125 "/></g></g></g><g fill="#d13535" fill-opacity="1"><g transform="translate(919.6176, 1211.875098)"><g><path d="M 41.296875 0 L 28.828125 0 L 0.3125 -71.546875 L 13.28125 -71.546875 L 35.359375 -13.390625 L 57.640625 -71.546875 L 70.21875 -71.546875 Z M 41.296875 0 "/></g></g></g><g fill="#d13535" fill-opacity="1"><g transform="translate(990.13171, 1211.875098)"><g><path d="M 21.46875 0 L 9.40625 0 L 9.40625 -71.546875 L 21.46875 -71.546875 Z M 21.46875 0 "/></g></g></g><g fill="#d13535" fill-opacity="1"><g transform="translate(1020.994396, 1211.875098)"><g><path d="M 32.90625 -72.046875 C 42.175781 -72.046875 50.523438 -69.59375 57.953125 -64.6875 L 52.9375 -54.0625 C 45.644531 -58.488281 38.660156 -60.703125 31.984375 -60.703125 C 28.378906 -60.703125 25.535156 -60.054688 23.453125 -58.765625 C 21.378906 -57.472656 20.34375 -55.632812 20.34375 -53.25 C 20.34375 -50.863281 21.296875 -48.832031 23.203125 -47.15625 C 25.109375 -45.488281 27.488281 -44.265625 30.34375 -43.484375 C 33.207031 -42.703125 36.304688 -41.710938 39.640625 -40.515625 C 42.984375 -39.328125 46.085938 -38.066406 48.953125 -36.734375 C 51.816406 -35.410156 54.1875 -33.332031 56.0625 -30.5 C 57.9375 -27.675781 58.875 -24.253906 58.875 -20.234375 C 58.875 -13.960938 56.367188 -8.953125 51.359375 -5.203125 C 46.347656 -1.460938 39.859375 0.40625 31.890625 0.40625 C 26.441406 0.40625 21.160156 -0.613281 16.046875 -2.65625 C 10.929688 -4.695312 6.46875 -7.457031 2.65625 -10.9375 L 7.875 -21.359375 C 11.476562 -18.023438 15.441406 -15.453125 19.765625 -13.640625 C 24.097656 -11.835938 28.207031 -10.9375 32.09375 -10.9375 C 36.3125 -10.9375 39.597656 -11.703125 41.953125 -13.234375 C 44.304688 -14.765625 45.484375 -16.894531 45.484375 -19.625 C 45.484375 -22.070312 44.523438 -24.128906 42.609375 -25.796875 C 40.703125 -27.472656 38.316406 -28.703125 35.453125 -29.484375 C 32.597656 -30.265625 29.5 -31.21875 26.15625 -32.34375 C 22.820312 -33.46875 19.722656 -34.660156 16.859375 -35.921875 C 14.003906 -37.179688 11.617188 -39.207031 9.703125 -42 C 7.796875 -44.800781 6.84375 -48.175781 6.84375 -52.125 C 6.84375 -58.1875 9.226562 -63.019531 14 -66.625 C 18.769531 -70.238281 25.070312 -72.046875 32.90625 -72.046875 Z M 32.90625 -72.046875 "/></g></g></g><g fill="#d13535" fill-opacity="1"><g transform="translate(1084.559259, 1211.875098)"><g><path d="M 14.40625 -61.46875 C 21.695312 -68.382812 30.691406 -71.84375 41.390625 -71.84375 C 52.085938 -71.84375 61.082031 -68.382812 68.375 -61.46875 C 75.664062 -54.5625 79.3125 -45.992188 79.3125 -35.765625 C 79.3125 -25.546875 75.664062 -16.941406 68.375 -9.953125 C 61.082031 -2.972656 52.085938 0.515625 41.390625 0.515625 C 30.691406 0.515625 21.695312 -2.972656 14.40625 -9.953125 C 7.113281 -16.941406 3.46875 -25.546875 3.46875 -35.765625 C 3.46875 -45.992188 7.113281 -54.5625 14.40625 -61.46875 Z M 41.5 -61.015625 C 34.40625 -61.015625 28.335938 -58.578125 23.296875 -53.703125 C 18.253906 -48.835938 15.734375 -42.859375 15.734375 -35.765625 C 15.734375 -28.679688 18.269531 -22.671875 23.34375 -17.734375 C 28.425781 -12.796875 34.472656 -10.328125 41.484375 -10.328125 C 48.503906 -10.328125 54.5 -12.796875 59.46875 -17.734375 C 64.445312 -22.671875 66.9375 -28.679688 66.9375 -35.765625 C 66.9375 -42.859375 64.445312 -48.835938 59.46875 -53.703125 C 54.5 -58.578125 48.507812 -61.015625 41.5 -61.015625 Z M 41.5 -61.015625 "/></g></g></g><g fill="#d13535" fill-opacity="1"><g transform="translate(1167.33668, 1211.875098)"><g><path d="M 54.78125 0 L 41.703125 -21.671875 C 41.015625 -21.597656 39.921875 -21.5625 38.421875 -21.5625 L 21.46875 -21.5625 L 21.46875 0 L 9.40625 0 L 9.40625 -71.546875 L 38.421875 -71.546875 C 47.554688 -71.546875 54.644531 -69.414062 59.6875 -65.15625 C 64.726562 -60.894531 67.25 -54.878906 67.25 -47.109375 C 67.25 -41.390625 65.96875 -36.550781 63.40625 -32.59375 C 60.851562 -28.644531 57.195312 -25.753906 52.4375 -23.921875 L 68.46875 0 Z M 21.46875 -32.390625 L 38.421875 -32.390625 C 50.003906 -32.390625 55.796875 -37.195312 55.796875 -46.8125 C 55.796875 -56.070312 50.003906 -60.703125 38.421875 -60.703125 L 21.46875 -60.703125 Z M 21.46875 -32.390625 "/></g></g></g><path stroke-linecap="butt" transform="matrix(0.749954, 0, 0, 0.749954, 1451.604646, 1012.407138)" fill="none" stroke-linejoin="miter" d="M 0.00109742 6.499216 L 149.307153 6.499216 " stroke="#ff3131" stroke-width="13" stroke-opacity="1" stroke-miterlimit="4"/></svg>